<svg xmlns="http://www.w3.org/2000/svg" width="310.547" height="158.231" viewBox="0 0 310.547 158.231">
  <g id="Gruppe_1847" data-name="Gruppe 1847" transform="translate(-9.747 -1.24)">
    <g id="Gruppe_1821" data-name="Gruppe 1821" transform="translate(191.859 1.24)">
      <path id="Pfad_4487" data-name="Pfad 4487" d="M328.691,1.456c.307.1-.044.132-.109.216.065-.084-.066-.257.109-.216" transform="translate(-321.574 -1.325)" fill="#ffbf00"/>
      <path id="Pfad_4488" data-name="Pfad 4488" d="M327.256,1.936a.407.407,0,0,0,.294-.087c-.036.059-.107.1-.294.087" transform="translate(-321.035 -1.488)" fill="#ffbf00"/>
      <path id="Pfad_4489" data-name="Pfad 4489" d="M327.98,1.24a.729.729,0,0,1-.228.361c.058-.094.028-.243.228-.361" transform="translate(-321.237 -1.24)" fill="#ffbf00"/>
      <path id="Pfad_4490" data-name="Pfad 4490" d="M324.99,4.9c.219.022.3-.244.3-.244-.215.549.33.148.462.206-.263.224-.437.071-.767.037" transform="translate(-320.113 -2.628)" fill="#ffbf00"/>
      <path id="Pfad_4491" data-name="Pfad 4491" d="M324.1,5.82a.307.307,0,0,0,.068-.145.16.16,0,0,1-.068.145" transform="translate(-319.753 -3.044)" fill="#ffbf00"/>
      <path id="Pfad_4492" data-name="Pfad 4492" d="M323.754,6.2c-.151.119-.349.032-.524-.008.031-.282.373-.174.519-.273-.082.107-.181.2,0,.281" transform="translate(-319.397 -3.144)" fill="#ffbf00"/>
      <path id="Pfad_4493" data-name="Pfad 4493" d="M319.155,15.247c.044-.018.109-.1.2-.027l-.195.253c-.132.055-.026-.16,0-.226" transform="translate(-317.714 -6.915)" fill="#ffbf00"/>
      <path id="Pfad_4494" data-name="Pfad 4494" d="M317.054,16.2c-.174.188.133.286,0,.34l-.288-.276Z" transform="translate(-316.768 -7.326)" fill="#ffbf00"/>
    </g>
    <path id="Pfad_4495" data-name="Pfad 4495" d="M314.869,13.712l.013.027.063-.057Z" transform="translate(-124.136 -5.062)" fill="#ffbf00"/>
    <g id="Gruppe_1846" data-name="Gruppe 1846" transform="translate(9.747 4.001)">
      <g id="Gruppe_1822" data-name="Gruppe 1822" transform="translate(88.018 39.864)">
        <path id="Pfad_4496" data-name="Pfad 4496" d="M229.31,254.382a.33.33,0,0,1,.594,0l1.068,2.163a.331.331,0,0,0,.25.182l2.389.346a.333.333,0,0,1,.184.566l-1.728,1.683a.329.329,0,0,0-.1.294L232.38,262a.333.333,0,0,1-.483.35l-2.135-1.123a.332.332,0,0,0-.31,0l-2.137,1.123a.33.33,0,0,1-.348-.025.334.334,0,0,1-.132-.325l.407-2.378a.329.329,0,0,0-.094-.294l-1.728-1.683a.331.331,0,0,1,.186-.566l2.387-.346a.333.333,0,0,0,.25-.182Z" transform="translate(-185.469 -146.777)" fill="#6f6e19"/>
        <path id="Pfad_4497" data-name="Pfad 4497" d="M255.291,254.382a.334.334,0,0,1,.3-.186.33.33,0,0,1,.3.186l1.068,2.163a.331.331,0,0,0,.25.182l2.388.346a.333.333,0,0,1,.185.566l-1.728,1.683a.332.332,0,0,0-.1.294l.408,2.378a.333.333,0,0,1-.483.35l-2.135-1.123a.332.332,0,0,0-.31,0l-2.136,1.123a.331.331,0,0,1-.48-.35l.407-2.378a.331.331,0,0,0-.095-.294L251.4,257.64a.331.331,0,0,1,.186-.566l2.387-.346a.333.333,0,0,0,.25-.182Z" transform="translate(-196.039 -146.777)" fill="#6f6e19"/>
        <path id="Pfad_4498" data-name="Pfad 4498" d="M281.273,254.382a.33.33,0,0,1,.594,0l1.068,2.163a.333.333,0,0,0,.251.182l2.388.346a.332.332,0,0,1,.184.566l-1.727,1.683a.331.331,0,0,0-.1.294l.408,2.378a.329.329,0,0,1-.133.325.333.333,0,0,1-.35.025l-2.135-1.123a.332.332,0,0,0-.31,0l-2.136,1.123a.331.331,0,0,1-.48-.35l.406-2.378a.328.328,0,0,0-.095-.294l-1.727-1.683a.331.331,0,0,1,.186-.566l2.386-.346a.333.333,0,0,0,.25-.182Z" transform="translate(-206.609 -146.777)" fill="#6f6e19"/>
        <path id="Pfad_4499" data-name="Pfad 4499" d="M307.254,254.382a.334.334,0,0,1,.3-.186.33.33,0,0,1,.3.186l1.068,2.163a.331.331,0,0,0,.25.182l2.388.346a.333.333,0,0,1,.185.566l-1.728,1.683a.336.336,0,0,0-.1.294l.409,2.378a.333.333,0,0,1-.483.35l-2.135-1.123a.332.332,0,0,0-.31,0l-2.136,1.123a.331.331,0,0,1-.48-.35l.408-2.378a.336.336,0,0,0-.095-.294l-1.728-1.683a.331.331,0,0,1,.186-.566l2.387-.346a.333.333,0,0,0,.25-.182Z" transform="translate(-217.179 -146.777)" fill="#6f6e19"/>
        <path id="Pfad_4500" data-name="Pfad 4500" d="M249.088,73.514c-3.751,1.107-6.9,1.058-10.6,2.3-.919.31-2.175.65-2.414.408.576-.3.046-.4.51-.709-1.242.687.167,1.117-1.712,1.654l-.1-1.128c-.367,1.358-2.363.7-3.353,1.99-.634-.151.079-.842,1.082-1.33-1.217.361-1.055,1-1.92,1.456.13-.429.275-.859.431-1.291-.57,1.3-1.755.8-2.449.909.064.238.872.506-.242,1.243-.524.25-.421-.116-.605-.139a1.882,1.882,0,0,1-.69,1.477c-.32-.119.132-.754-.008-1.042a5.1,5.1,0,0,1-1.373,1.131c-.6,1.131.36.24.148,1.033-.609.65-.827.576-1.037.3s-.346-.727-.816-.58a13.04,13.04,0,0,1,2.484-3.907,15.414,15.414,0,0,0-2.05,2.348c-.141-.46-1.822,1.445-1.021-.25a8.611,8.611,0,0,0-2.233,5.6,9.046,9.046,0,0,0,1.912,5.639c-.159-.467-.371-1.056-.132-1.077.992,1.354.593,1.393.584,1.858.944.817,1.31.246,2.077.41,1.287,1.947,1.748,1.825,2.93,3.511l.2-.61c.887,1.125,1.473.362,2.542,1.3.017.157-.523.078-.967.012,1.184.359.817,1,2.013,1.258l-1.139.266c.9.4,2.3.695,1.635,1.083,1.81-.043,4.512,1.077,6.605,1.086l-.238.51c1.153-.4,3.834.765,4.838.065l.128.242c.717-.16,1.427-.33,2.131-.517.923.143.553.943.644.719a26.837,26.837,0,0,1,5.005.268c.332-.734,2.471-.965,4.163-1.2A34.822,34.822,0,0,0,268.38,97.3a26.011,26.011,0,0,0,5.564-3.076,14.361,14.361,0,0,0,4.169-4.542,4,4,0,0,0,.523-2.011,7.334,7.334,0,0,0-.3-2.122l-.213,1.577a3.8,3.8,0,0,1-.527,1.561c-.8.921-1.646.723-2.6,1.033.249.045.493.079.748.109-.821,1.47-.959.481-1.6,1.767l-.5-.857c-.066.688-1.218.943-1.72.925l-.049.817c-1.052.154-1.714.272-2.222-.178l.326.543c-.459-.157-3.6,1.5-2.8.052-.229.231-.384.634-1.017.76l-.263-.58c-.821.433-1.8.816-2.129.53a1.307,1.307,0,0,0,.631-.9c-1.849.432-1.965.948-2.007,1.52-.049.555-.031,1.15-1.781,1.492l-.021-.414-.826.577-1-.381c-1.125,1.6-4.966.382-7.086,1.092-.857.118-1.957-.726-3.549-.724l.073.64c-.634-.359-2.144-.73-3.592-1.288s-2.82-1.282-3.251-2.121c-1.227.247.094.155-.017.644-2.373.168-2.322-.88-3.346-1.554-1.4-.087.95.53.122.782-1.89-1.089-1.9.272-4.192-1.113-.107-.431.7.037,1.026-.091-1.911-.025-4.875-1.98-6.392-3.526a6.006,6.006,0,0,1-.8-1.612,2.023,2.023,0,0,1-.024-1.207,3,3,0,0,1,.673-1.089,6.388,6.388,0,0,1,1.526-1.207l-.1-.211c1.22-.309,2.16-1.558,3.78-2.049l-.857.058c.8-.862,1.48-.889,2.411-1.444l.768.413c1.022-.593.308-.709,1.026-1.31,1.131.052,3.271-.884,3.8-.95.41.225-.361.511-.49.734,1.322-.519,1.117-1.132,2.869-1.44l.054.174c4.083-1.634,9.668-1.566,14.5-1.59-.323-.072-.228-.2-.342-.347a62.286,62.286,0,0,1,7.89,1.059c2.594.487,5.018,1.04,7.183,1.365-1.278-.625-2.956-1.625-4.777-2.339a10.132,10.132,0,0,0-5.269-.877c-.976-.693-2.717-.272-3.072-.993-4.131-.8-5.9.32-9.83.419Z" transform="translate(-183.754 -73.1)" fill="#ffbf00"/>
        <path id="Pfad_4501" data-name="Pfad 4501" d="M159.646,99.206a.412.412,0,0,0-.069-.042c.066-.012.1-.01.069.042" transform="translate(-158.722 -83.701)" fill="#ffbf00"/>
        <path id="Pfad_4502" data-name="Pfad 4502" d="M158.135,98.906a1.569,1.569,0,0,1,.855.155c-.211.049-.783.308-.855-.155" transform="translate(-158.135 -83.598)" fill="#ffbf00"/>
        <path id="Pfad_4503" data-name="Pfad 4503" d="M159.564,100.385l-.3-.139c.173-.126.142.093.3.139" transform="translate(-158.596 -84.128)" fill="#ffbf00"/>
      </g>
      <path id="Pfad_4504" data-name="Pfad 4504" d="M159.583,99.658l.176,0-.16-.166Z" transform="translate(-70.707 -43.972)" fill="#ffbf00"/>
      <g id="Gruppe_1823" data-name="Gruppe 1823" transform="translate(95.503 53.718)">
        <path id="Pfad_4505" data-name="Pfad 4505" d="M185.176,96.713a.475.475,0,0,1-.036-.257Z" transform="translate(-176.606 -96.456)" fill="#ffbf00"/>
        <path id="Pfad_4506" data-name="Pfad 4506" d="M186.367,98.188a.719.719,0,0,0,.141.047c-.041.012-.077,0-.141-.047" transform="translate(-177.107 -97.161)" fill="#ffbf00"/>
        <path id="Pfad_4507" data-name="Pfad 4507" d="M184.149,96.994l.122-.024a.148.148,0,0,1-.122.024" transform="translate(-176.204 -96.665)" fill="#ffbf00"/>
        <path id="Pfad_4508" data-name="Pfad 4508" d="M171.06,97.887l-.3-.31c.221-.132.241.148.3.31" transform="translate(-170.755 -96.898)" fill="#ffbf00"/>
        <path id="Pfad_4509" data-name="Pfad 4509" d="M191.707,102.269l.029-.135c.033.06.049.121-.029.135" transform="translate(-179.279 -98.766)" fill="#ffbf00"/>
        <path id="Pfad_4510" data-name="Pfad 4510" d="M186.649,101.9a.543.543,0,0,1,.015-.18l.036.033Z" transform="translate(-177.221 -98.599)" fill="#ffbf00"/>
        <path id="Pfad_4511" data-name="Pfad 4511" d="M183.261,97.425l-.007.015-.1-.086c.053-.025.086,0,.106.071" transform="translate(-175.8 -96.817)" fill="#ffbf00"/>
        <path id="Pfad_4512" data-name="Pfad 4512" d="M193.337,102.677a1.455,1.455,0,0,1,.12.3.315.315,0,0,1-.12-.3" transform="translate(-179.941 -98.987)" fill="#ffbf00"/>
      </g>
      <path id="Pfad_4513" data-name="Pfad 4513" d="M186.606,98.266l.019,0,0-.006Z" transform="translate(-81.701 -43.474)" fill="#ffbf00"/>
      <g id="Gruppe_1824" data-name="Gruppe 1824" transform="translate(89.401 52.762)">
        <path id="Pfad_4514" data-name="Pfad 4514" d="M184.972,101.777l.158.07c-.067.032-.124-.008-.158-.07" transform="translate(-170.437 -97.665)" fill="#ffbf00"/>
        <path id="Pfad_4515" data-name="Pfad 4515" d="M171.269,98.123l.1.1c-.047,0-.074-.046-.1-.1" transform="translate(-164.862 -96.179)" fill="#ffbf00"/>
        <path id="Pfad_4516" data-name="Pfad 4516" d="M161.042,98.718c.1,0,.119.094.138.193a.493.493,0,0,1-.138-.193" transform="translate(-160.701 -96.421)" fill="#ffbf00"/>
        <path id="Pfad_4517" data-name="Pfad 4517" d="M219.653,97.632l.039,0a.033.033,0,0,1-.039,0" transform="translate(-184.546 -95.979)" fill="#ffbf00"/>
        <path id="Pfad_4518" data-name="Pfad 4518" d="M213.409,96.945a.634.634,0,0,1-.049-.109c.033-.036.05.028.049.109" transform="translate(-181.986 -95.651)" fill="#ffbf00"/>
        <path id="Pfad_4519" data-name="Pfad 4519" d="M186.774,99.444l-.016.047.211.142.017-.049Zm4.16-.532c.257-.248.213.263.371.307-.206.225-.177-.238-.371-.307m-5.807-.208c.26-.128-.126-.384.044-.51l-.136.026c.221-.272.159.289.314.212l-.1.049c-.082.246.16.167.181.361-.122.1-.4-.087-.3-.138m5.561.045c.154-.2.173-.127.278-.056a.181.181,0,0,1-.278.056m-4.274-.268c-.02-.194.241-.2.295-.1-.017-.254-.192-.222-.329-.249a.116.116,0,0,0-.092-.034.234.234,0,0,0,.092.034c.051.059.015.189.015.28l-.068.075.192.068Zm-2.431-.6.145.337.225-.03Zm-4.25-.024c-.107-.006-.139.039-.129-.193-.052-.1-.138.028-.192-.068.211-.2.2.165.321.262a.349.349,0,0,1,.1.021.106.106,0,0,1-.1-.021m.69-.188c-.056-.459-.454-.183-.542-.3.206-.1.677-.21.542.3m7.269-.017c.07-.074-.09-.362-.246-.287l.082-.364c0,.242.317.211.352.234.055.339-.066.2-.189.417m6.258-.094-.1-.071c-.055-.1-.02-.193-.039-.265.122.021.282.187.143.336m-1.529-.546a.289.289,0,0,0-.1.123l-.019-.074c.043-.126.08-.1.115-.049a1.089,1.089,0,0,1,.154-.1c.035-.246-.183-.414-.241-.552.1.071.194.312.331.163-.018-.072,0-.122-.088-.118l.191-.055c.218.343.01.449-.193.562a.4.4,0,0,1-.059.173c-.033.036-.063-.025-.095-.069m1.155-.307c-.034-.278-.02-.652-.339-.464-.012.291.074.288-.044.631.106.071.192-.053.244-.078-.072-.047-.155.077-.176-.116a.2.2,0,0,1,.316.028.419.419,0,0,0,.071.23.419.419,0,0,0-.071-.23m.219-.454-.139.028.126.386Zm-1.947.384a.2.2,0,0,0-.214-.262Zm.146.579.106.071-.113-.434Zm-2.161,0-.333-.163c.063-.437.3.018.451-.058.055.216-.068.074-.119.22m-3.138-.05c-.021-.194.359-.543.451-.18-.191.055-.4.034-.451.18m-7.3.237.3.018-.281-.066Zm-2.422.128c.177-.817-.417-.579-.511-.973-.019.273-.2.7.263.688-.4.276-.249-.529-.486.157.191-.053.421.161.455.183l-.225.03c.128.507.346-.25.5-.084m-4.82-.469.057.238-.087-.242.03,0-.013-.053.471.136Zm-.1.192-.281-.187.142.214-.422-.4c.241-.2.524.111.562.377m-.54.061c.086.024.124.053.141.086a.364.364,0,0,1,.107.32c-.178-.12-.065-.232-.107-.32a.307.307,0,0,0-.141-.086m-3.051.217a.508.508,0,0,0,.015.21.208.208,0,0,1,.078.124c-.031,0-.06-.053-.078-.124a.212.212,0,0,0-.288.061c.036.144.177.117.231.214-.207.344-.673-.689-.539.3-.088-.118-.389-.379-.284-.55a1.137,1.137,0,0,0,.865-.235c.011-.053.031-.094.072-.1a.266.266,0,0,1-.072.1m-2.263.024-.052.147-.122-.021Zm-2.456.225.21.021-.1.294Zm7.328.563a2.1,2.1,0,0,1,.453-.057c-.032.218-.364.177-.453.057m1.728.253.331.042c-.02-.2-.225-.092-.331-.042m-1.8.114.115.142c-.113-.014-.126-.075-.115-.142l-.1-.12c.25-.149.121-.005.1.12m2.363.019.113-.058c.135-.171.163-.638.354-.171l-.354.171a.114.114,0,0,1-.113.058m-.294-1.158c.282.187.3.381.517.765-.279.174-.355-.356-.321-.575-.2-.19-.158.077-.26.127Zm-.009.776c-.193-.19-.544-.424-.512-.644a.552.552,0,0,0,.356.6c.052-.024.088,0,.156.046m9.485.077-.054-.217.05-.026-.21-.14c.276-.3.474.255.615.35-.122-.022-.46-.55-.4.033M175,98.5c-.109-.314-.387-.259-.58-.328-.049.269.148.579.373.55.265.237.1-.415.207-.222m.908.245.054-.025-.2-.189Zm5.007.154c-.072-.047-.106-.069-.158-.044.036.144.179.358.075.41-.072-.168-.316-.211-.32-.454.212.262.36-.421.4.087m3.735-.011a.344.344,0,0,1-.04-.049.173.173,0,0,1,.04.049c.164.176.23-.262.363.161-.163.364-.269-.012-.363-.161m-2.364-1.96-.212-.142.018-.049.21.141Zm-2.126.024.084-.246.107.192Zm-13.8,1.67c-.072-.17.1-.052.154-.077l-.245-.043c-.033.1.056.095.091.12m13.815.681-.151-.025a.064.064,0,0,1-.094-.016l.094.016c.078-.049.133-.2.151.025m8.335.152c.239-.2.488.207.7.228l-.071-.168.21.14,0-.242c.348.112.781-.138.909.247l-.042-.387.371.306-.213-.262a3.085,3.085,0,0,1,1.136.217l-.038-.145c.068-.074.122.021.193.068l-.055-.218c.627.06.8-.43,1.5-.2.19-.052-.106-.069-.108-.19.1-.173.349-.009.4.087-.056-.338-.351-.235-.127-.507.158.167-.11-.313.17-.247l.111.434c.157-.075.031-.34.277-.3.281.187-.343.492.109.555.228-.028.477-1.005.916-.773.38-.227-.2-.674.324-.564l-.336-.285c.086-.122.03-.34.259-.248.072.168.214.384.335.4-.491-.328.431-.495-.028-.921l.171.015a.088.088,0,0,1-.015-.091l.227-.03c-.141-.094-.473-.135-.319-.454l.328-.081c-.087-.239.033-.34.012-.533l-.965-.464c.038.145.177.238.125.386-.257.127-.211-.262-.453-.062l.109.192c-.019-.074-.054-.1,0-.121.085-.124.123.021.124.142-.085.244-.33.079-.4-.089-.314.033-.065.439-.133.514-.163-.409-.525.011-.717-.179l.125.265c-.239.32-.454.059-.593-.036l.055.217c-.333-.041-.5.69-.749-.079l.034.145c-.136.068-.342.229-.474,0,0,.09-.025.2-.081.23-.074-.3-.215-.072-.416-.017.134.077.09.462.231.555-.308.4-.283-.43-.544-.424-.157.2.139.216.177.361-.4-.21-.824.891-1.079.121l.173-.247c-.16-.167-.246-.164-.227-.091.051-.025.068.047.086.118-.481.4-.755-.565-1.241-.408.036.145.106.19.108.313-.224.151-.218-.748-.581-.448l.072.167c-.121.1-.211-.14-.195-.189-.008.655-.766-.031-1.018.823-.177-.359-.687-.64-.842-.442-.222.394.2.433.116.8-.175,0-.267-.359-.527-.232,0-.364.513-.739.024-.947l-.069.2c.05-.026.12-.1.191-.053.142.215-.084.245-.117.343l-.524-.11c-.04-.389.275-.3.307-.4-.416.082-.915.651-1.3.393l.036.147c-.492-.33-.286.709-.679.087-.207.1.075.41-.237.441-.088,0-.036-.143-.021-.193-.384-.135-.167.368-.523.014l.077.409c-.423-.281-.867-1-1.231-.822.022.316.247.286.338.526-.5-.571-1.186-.07-1.644-.375.136-.269-.217-.625.075-.85.077.409.213.141.37.185-.254-.893-1.058.436-1.138-.336l-.065.316c-.071-.047-.249-.286-.126-.386l-.5.2c.177.24.55.79.667.447.144.337-.206.224-.079.609-.338-.526-.208.223-.556.109.157-.457-.348-.62-.332-.842-.114.087-.369-.127-.467-.282-.2-.043-.666.328-.99.171a.885.885,0,0,1,.3.623c-.159-.165-.334-.161-.363.179.565.619.181-.78.692-.379a.794.794,0,0,0,.53.594c-.119.222-.066.317-.115.585-.323-.817-.839-.078-1.26-.482-.177-.238-.044-.75-.448-.839l.346-.25c-.38.226-.091-.241-.405-.331l.125.265c-.192.053-.261.006-.368-.186l.164.409c-.1.05-.3.1-.3-.139a.948.948,0,0,0-.036.25c-.02-.069-.069-.112-.192-.1.073.047.123.02.125.141-.463-.1-.108.443-.394.405.046.095-.035.212-.138.263.006-.644-.562-.728-.712-1.084l0,.009-.387-.259c.079.054-.005.229-.118.3l.018,0c-.122.1.148.7-.221.514l-.193-.189c.034.022,0,.121-.017.17l-.2-.174c-.3.6-.575-.338-.935-.042.1-.052.262-.007.2.189-.07.074-.176,0-.23-.092l.018.072-.684-.4c.056.217.438.234.269.48-.1.294-.3-.018-.42-.04.015-.17.24-.321.012-.413-.028.085-.245.26-.144.383-.234-.174-.574-.278-.784-.581-.068.075.038.145.073.168l.017-.049c.141.095.023.438.3.26.024.559-.4.155-.642.233l.388.381c-.652.765-1.534-.063-2.18-.073.19-.174.349-.009.326-.445-.4-.208-.349-.114-.75-.2l.035.023c-.208.224-.491-.207-.626.184.089.24.294-.226.3.26l-.507-.037c.16.288.507.037.7.1.139-.028-.28-.066-.214-.384.471.014.58.326.812.783.142.337-.206.344-.294.347-.3-.5-.74-.736-1.206-.507l-.258.368c-.232-.334-.133-.991-.552-.909l.125.265c-.091.1-.151.139-.2.138.179.2.374.424.537.632-.237.562-.685-.278-1.033-.39.018.072.141.093.177.238-.522.135-1.07-.533-1.473-.622-.169.247.335.163.253.529-.212-.142-.452.18-.509-.158.093.482-.487.036-.081.486a4.235,4.235,0,0,1-2.378-.5.651.651,0,0,1,.005.364.858.858,0,0,1,.79.466c-.171.248-.406-.33-.457-.183.09.12.263.115.266.358-.222.273-.349-.113-.507-.159l.085-.122c-.492-.328-.271-.844-.793-.709-.189.294,0,.241.005.606-.122-.143-.518.254-.646-.132l.315-.031c-.221-.1-.429-.1-.582-.228.015.078.028.16.075.191-.175-.119-.4-.087-.491-.33l-.049.39c.1-.173.417-.2.47.013-.029.342-.346.129-.484.157.612.108.619.714,1.136.46l-.088-.12c.321-.3.654.191.936.179a.272.272,0,0,0-.057.286c.623-.3,1.237-.075,1.948-.262l.214.384.014-.292c.348-.13.075.411.3.381-.084,0-.069-.046-.088-.12.4.331.226-.271.452-.18-.109-.311-.438-.11-.336-.526.4.331,1.029.146,1.088.849.749-.284,1.676.155,2.306.216.085-.125-.054-.1-.021-.2.249.408.833-.285.839.078a1.1,1.1,0,0,0,.2-.466,1.046,1.046,0,0,0,.555.309l-.149-.1.017-.049.21.142-.008.023c.5.1,1.089.015,1.547.4-.264-.237.066-.438-.059-.581.234.578.791.59,1.243.53,0-.121.033-.219-.02-.314l.263.236-.034-.145c.469-.108.982.537,1.292.262-.192-.068-.193-.189-.213-.384a2.6,2.6,0,0,1,1.047.2.235.235,0,0,1-.034-.12c.1-.05.226.092.332.163l.014-.291c.2.134.46-.017.7.215.093-.319.58.3.855.161.106.071-.23-.334.066-.318.042.632.384.017.408.695l.259-.249.058.34c.22-.636.336.284.662.081-.016-.072-.051-.1-.034-.145.106.071.349.114.16.287.176,0,.769.154.5-.205.02.2-.224.029-.33-.04.012-.291.275-.177.34-.494a1.3,1.3,0,0,0,.068.13l.038-.18c.328.321.661.09.9.5a.148.148,0,0,1,.183-.14l.005.365.348-.007-.164-.531c.383-.106.652.5.966.585.081-.609.613.228.886-.312l-.246-.164c.525.11.607-.257,1.1-.049a2.722,2.722,0,0,0-1.021.581c.607-.257,1.049.341,1.6-.014-.037-.144-.177-.238-.04-.386.109.311.523-.014.441.353.173-.124.2-.466.309-.515l.578.447-.017-.072c.983-.848,1.838.565,2.826.2l-.02-.2.247.287c-.195-.191.084-.246.1-.415l.632.422c.014-.17-.024-.557-.178-.482" transform="translate(-160.467 -94.845)" fill="#ffbf00"/>
        <path id="Pfad_4520" data-name="Pfad 4520" d="M212.366,97.381a.145.145,0,0,1,.142-.005.285.285,0,0,1-.142.005" transform="translate(-181.582 -95.868)" fill="#ffbf00"/>
        <path id="Pfad_4521" data-name="Pfad 4521" d="M191.838,97a.154.154,0,0,1-.058.123.2.2,0,0,1,.058-.123" transform="translate(-173.206 -95.721)" fill="#ffbf00"/>
      </g>
      <path id="Pfad_4522" data-name="Pfad 4522" d="M190.98,96.715H191l-.036-.023Z" transform="translate(-83.474 -42.835)" fill="#ffbf00"/>
      <g id="Gruppe_1825" data-name="Gruppe 1825" transform="translate(89.864 53.874)">
        <path id="Pfad_4523" data-name="Pfad 4523" d="M161.279,98.076c-.11-.312.1-.05.192-.052-.087,0-.12.22-.192.052" transform="translate(-161.248 -97.209)" fill="#ffbf00"/>
        <path id="Pfad_4524" data-name="Pfad 4524" d="M162.308,98.929a.366.366,0,0,0-.215-.182c.057-.009.118.023.215.182" transform="translate(-161.592 -97.544)" fill="#ffbf00"/>
        <path id="Pfad_4525" data-name="Pfad 4525" d="M161.513,98.787a.473.473,0,0,1,.343-.049c-.088.015-.161.135-.343.049" transform="translate(-161.356 -97.535)" fill="#ffbf00"/>
        <path id="Pfad_4526" data-name="Pfad 4526" d="M165.265,98.493a.239.239,0,0,0-.314-.09c.451-.181-.092-.362-.129-.507.281.068.284.309.444.6" transform="translate(-162.702 -97.198)" fill="#ffbf00"/>
        <path id="Pfad_4527" data-name="Pfad 4527" d="M166.494,99.062a.207.207,0,0,0-.125.037.1.1,0,0,1,.125-.037" transform="translate(-163.332 -97.669)" fill="#ffbf00"/>
        <path id="Pfad_4528" data-name="Pfad 4528" d="M166.747,98.751c.157.045.211.263.284.43-.189.156-.31-.19-.45-.243.11,0,.218.02.167-.187" transform="translate(-163.418 -97.546)" fill="#ffbf00"/>
        <path id="Pfad_4529" data-name="Pfad 4529" d="M174.895,96.869c-.036-.024-.122-.022-.125-.144l.262-.006c.1.071-.085.125-.138.149" transform="translate(-166.75 -96.72)" fill="#ffbf00"/>
        <path id="Pfad_4530" data-name="Pfad 4530" d="M176.609,97.8c.209.018.1-.294.206-.224l-.011.412Z" transform="translate(-167.498 -97.064)" fill="#ffbf00"/>
      </g>
      <path id="Pfad_4531" data-name="Pfad 4531" d="M176.375,101.453l.008-.027-.07-.015Z" transform="translate(-77.513 -44.754)" fill="#ffbf00"/>
      <g id="Gruppe_1826" data-name="Gruppe 1826" transform="translate(99.836 53.74)">
        <path id="Pfad_4532" data-name="Pfad 4532" d="M178.207,96.952l-.147-.458c.176.117.18.482.147.458" transform="translate(-178.06 -96.494)" fill="#ffbf00"/>
      </g>
      <path id="Pfad_4533" data-name="Pfad 4533" d="M179.565,96.646l.262,0-.385-.137Z" transform="translate(-78.786 -42.758)" fill="#ffbf00"/>
      <path id="Pfad_4534" data-name="Pfad 4534" d="M181.27,97.049l.3.019-.263-.116Z" transform="translate(-79.53 -42.94)" fill="#ffbf00"/>
      <g id="Gruppe_1827" data-name="Gruppe 1827" transform="translate(111.702 54.3)">
        <path id="Pfad_4535" data-name="Pfad 4535" d="M198.566,97.739c.04.389-.38.228-.5.328.082-.487.334.163.5-.328" transform="translate(-198.065 -97.56)" fill="#ffbf00"/>
        <path id="Pfad_4536" data-name="Pfad 4536" d="M211.477,97.592l-.4-.088c.31-.152.086,0,.4.088" transform="translate(-203.359 -97.438)" fill="#ffbf00"/>
        <path id="Pfad_4537" data-name="Pfad 4537" d="M383.341,99.1a.406.406,0,0,0,.069.041c-.066.013-.1.011-.069-.041" transform="translate(-273.438 -98.112)" fill="#ffbf00"/>
        <path id="Pfad_4538" data-name="Pfad 4538" d="M384.32,99.24a1.573,1.573,0,0,1-.855-.155c.211-.049.782-.308.855.155" transform="translate(-273.493 -98.061)" fill="#ffbf00"/>
        <path id="Pfad_4539" data-name="Pfad 4539" d="M383.275,97.826l.3.139c-.174.126-.142-.093-.3-.139" transform="translate(-273.416 -97.596)" fill="#ffbf00"/>
      </g>
      <path id="Pfad_4540" data-name="Pfad 4540" d="M383.162,98.563l.16.165.015-.17Z" transform="translate(-161.668 -43.594)" fill="#ffbf00"/>
      <g id="Gruppe_1828" data-name="Gruppe 1828" transform="translate(201.528 52.945)">
        <path id="Pfad_4541" data-name="Pfad 4541" d="M357.838,101.443a.473.473,0,0,1,.036.257Z" transform="translate(-352.893 -97.713)" fill="#ffbf00"/>
        <path id="Pfad_4542" data-name="Pfad 4542" d="M356.577,100.11a.712.712,0,0,0-.142-.047c.042-.011.078,0,.142.047" transform="translate(-352.322 -97.15)" fill="#ffbf00"/>
        <path id="Pfad_4543" data-name="Pfad 4543" d="M358.809,101.32l-.123.024a.151.151,0,0,1,.123-.024" transform="translate(-353.238 -97.661)" fill="#ffbf00"/>
        <path id="Pfad_4544" data-name="Pfad 4544" d="M371.773,100.21l.3.31c-.221.132-.24-.148-.3-.31" transform="translate(-358.562 -97.211)" fill="#ffbf00"/>
        <path id="Pfad_4545" data-name="Pfad 4545" d="M351.3,95.971l-.029.135c-.034-.06-.049-.12.029-.135" transform="translate(-350.208 -95.486)" fill="#ffbf00"/>
        <path id="Pfad_4546" data-name="Pfad 4546" d="M356.357,96.307a.541.541,0,0,1-.016.18l-.036-.034Z" transform="translate(-352.269 -95.623)" fill="#ffbf00"/>
        <path id="Pfad_4547" data-name="Pfad 4547" d="M359.709,100.843l.007-.015.1.085c-.053.026-.086,0-.106-.07" transform="translate(-353.654 -97.462)" fill="#ffbf00"/>
        <path id="Pfad_4548" data-name="Pfad 4548" d="M349.621,95.452a1.42,1.42,0,0,1-.12-.3.318.318,0,0,1,.12.3" transform="translate(-349.501 -95.154)" fill="#ffbf00"/>
      </g>
      <path id="Pfad_4549" data-name="Pfad 4549" d="M356.407,100.064h.017l-.019,0Z" transform="translate(-150.782 -44.204)" fill="#ffbf00"/>
      <g id="Gruppe_1829" data-name="Gruppe 1829" transform="translate(185.804 52.799)">
        <path id="Pfad_4550" data-name="Pfad 4550" d="M357.961,96.5l-.158-.069c.066-.033.123.007.158.069" transform="translate(-337.154 -95.522)" fill="#ffbf00"/>
        <path id="Pfad_4551" data-name="Pfad 4551" d="M371.707,100.138l-.1-.1c.046,0,.074.046.1.1" transform="translate(-342.772 -96.992)" fill="#ffbf00"/>
        <path id="Pfad_4552" data-name="Pfad 4552" d="M381.905,99.482c-.1,0-.119-.094-.137-.193a.5.5,0,0,1,.137.193" transform="translate(-346.904 -96.69)" fill="#ffbf00"/>
        <path id="Pfad_4553" data-name="Pfad 4553" d="M323.363,100.695l-.04,0a.033.033,0,0,1,.04,0" transform="translate(-323.126 -97.258)" fill="#ffbf00"/>
        <path id="Pfad_4554" data-name="Pfad 4554" d="M329.6,101.307a.531.531,0,0,1,.049.109c-.031.036-.05-.028-.049-.109" transform="translate(-325.68 -97.511)" fill="#ffbf00"/>
        <path id="Pfad_4555" data-name="Pfad 4555" d="M332.027,95.4l.016-.047-.211-.142-.017.049Zm-4.161.532c-.257.248-.213-.263-.37-.307.205-.225.176.238.37.307m5.807.208c-.26.127.126.384-.044.51l.136-.027c-.221.272-.158-.288-.314-.211l.1-.05c.081-.246-.161-.167-.181-.361.122-.1.4.087.3.139m-5.561-.046c-.155.2-.174.127-.278.056a.182.182,0,0,1,.278-.056m4.273.269c.02.194-.24.2-.295.1.017.254.192.222.33.249a.111.111,0,0,0,.091.034.25.25,0,0,0-.091-.034c-.052-.059-.016-.189-.016-.279l.068-.075-.192-.069Zm2.431.6-.144-.337-.225.03Zm4.25.024c.108.006.139-.039.129.194.053.1.138-.028.192.068-.211.2-.2-.166-.321-.262a.321.321,0,0,1-.1-.021.1.1,0,0,1,.1.021m-.689.189c.056.459.454.182.542.3-.206.1-.677.21-.542-.3m-7.27.017c-.069.074.091.362.246.287l-.082.365c0-.243-.317-.212-.352-.235-.055-.338.065-.2.187-.417m-6.257.093.1.071c.055.1.02.193.039.266-.122-.022-.282-.187-.143-.337m1.529.547a.284.284,0,0,0,.1-.123l.02.074c-.043.125-.08.1-.116.049a1.093,1.093,0,0,1-.154.1c-.034.246.184.414.241.552-.1-.072-.193-.313-.331-.164.018.073,0,.123.087.119l-.19.055c-.218-.343-.009-.449.193-.562a.382.382,0,0,1,.06-.173c.033-.036.063.025.094.069m-1.155.307c.033.278.02.651.339.464.013-.291-.074-.288.044-.631-.106-.071-.192.053-.244.078.072.047.156-.077.176.116a.2.2,0,0,1-.316-.028.423.423,0,0,0-.071-.231.419.419,0,0,0,.071.231m-.219.454.138-.028-.126-.386Zm1.946-.384a.2.2,0,0,0,.214.262Zm-.146-.579-.106-.071.113.434Zm2.162,0,.333.163c-.065.437-.3-.018-.453.057-.055-.216.068-.074.119-.22m3.137.05c.022.194-.358.543-.45.18.191-.055.4-.034.45-.18m7.3-.238-.3-.018.281.067Zm2.422-.127c-.177.817.417.58.51.975.02-.273.2-.7-.263-.689.4-.276.249.529.485-.156-.19.053-.419-.162-.454-.184l.225-.03c-.129-.507-.346.25-.5.084m4.82.469-.057-.237.087.241-.03,0,.014.053-.472-.136Zm.1-.192.282.187-.142-.214.423.4c-.243.2-.524-.112-.562-.377m.54-.061c-.086-.024-.124-.053-.141-.085a.363.363,0,0,1-.107-.32c.178.119.064.231.107.32a.3.3,0,0,0,.141.085m3.052-.217a.542.542,0,0,0-.016-.21.207.207,0,0,1-.078-.123c.031,0,.06.052.078.123a.212.212,0,0,0,.288-.061c-.037-.144-.177-.116-.231-.213.208-.344.674.689.54-.3.088.119.388.38.284.552a1.129,1.129,0,0,0-.865.234c-.012.053-.031.094-.073.1a.262.262,0,0,1,.073-.1m2.262-.024.052-.147.122.021Zm2.456-.225-.21-.021.1-.294Zm-7.328-.563a2.221,2.221,0,0,1-.453.058c.031-.219.364-.177.453-.058M346,96.247l-.33-.041c.019.195.225.091.33.041m1.8-.113-.115-.142c.114.014.126.075.115.142l.1.119c-.25.149-.121.006-.1-.119m-2.363-.02-.114.058c-.135.171-.163.638-.353.171l.353-.171a.116.116,0,0,1,.114-.058m.294,1.158c-.281-.187-.3-.381-.516-.765.279-.174.355.356.322.575.195.19.157-.077.26-.128Zm.01-.777c.193.19.544.424.511.644a.553.553,0,0,0-.356-.6c-.052.024-.088,0-.155-.046m-9.486-.077.054.217-.05.025.21.141c-.275.3-.475-.256-.614-.351.122.022.46.55.4-.033m7.547-.074c.109.313.387.259.581.328.049-.269-.148-.58-.372-.552-.267-.235-.1.416-.208.224M342.9,96.1l-.054.025.2.189Zm-5.006-.154c.071.047.106.069.157.044-.036-.145-.179-.359-.075-.411.072.168.316.211.32.454-.211-.262-.359.421-.4-.088m-3.735.011a.351.351,0,0,1,.04.049.156.156,0,0,1-.04-.049c-.164-.176-.23.261-.363-.161.164-.364.269.012.363.161m2.364,1.96.213.142-.018.049-.21-.14Zm2.126-.024-.083.246-.107-.192Zm13.8-1.671c.072.17-.1.052-.154.077l.244.043c.033-.1-.056-.095-.091-.12m-13.815-.68.151.025a.065.065,0,0,1,.094.015l-.094-.015c-.078.049-.133.2-.151-.025m-8.335-.153c-.239.2-.488-.207-.7-.228l.071.168-.21-.14v.242c-.348-.112-.782.139-.909-.247l.042.387-.371-.306.213.262a3.1,3.1,0,0,1-1.137-.217l.038.145c-.068.074-.123-.021-.193-.068l.056.217c-.628-.059-.8.431-1.5.2-.191.053.106.069.109.191-.1.173-.349.009-.4-.087.056.338.351.234.127.506-.159-.167.11.313-.17.247l-.11-.434c-.157.075-.031.339-.277.3-.281-.188.343-.492-.109-.556-.228.028-.477,1.006-.916.773-.38.228.2.676-.324.564l.336.286c-.087.122-.031.339-.259.247-.072-.168-.212-.384-.335-.4.491.328-.431.495.028.921l-.17-.015a.089.089,0,0,1,.014.091l-.227.03c.141.095.473.135.319.454l-.327.082c.087.238-.033.339-.013.533l.965.464c-.037-.145-.177-.238-.125-.386.257-.127.211.262.453.062l-.109-.192c.02.074.055.1,0,.121-.085.125-.123-.021-.124-.142.085-.244.329-.08.4.089.314-.032.065-.439.133-.514.163.41.524-.01.717.179l-.125-.264c.24-.32.453-.06.593.035l-.054-.217c.332.041.5-.69.749.079l-.034-.144c.136-.068.342-.23.474,0,0-.091.026-.2.081-.231.074.3.216.072.416.018-.133-.077-.09-.463-.23-.556.308-.4.283.43.543.425.157-.2-.139-.216-.177-.361.4.211.824-.891,1.079-.121l-.173.247c.16.167.246.164.227.091-.051.025-.068-.047-.086-.118.481-.4.755.565,1.242.408-.036-.145-.106-.191-.108-.314.224-.151.218.748.581.448l-.072-.167c.121-.1.212.14.195.189.008-.655.766.031,1.018-.823.178.358.687.639.842.441.222-.394-.2-.433-.116-.8.176,0,.267.359.527.232,0,.364-.514.739-.024.947l.069-.2c-.05.027-.12.1-.192.053-.142-.215.084-.245.117-.343l.524.11c.039.388-.275.3-.307.4.416-.083.915-.652,1.3-.393l-.036-.147c.492.33.286-.709.679-.087.207-.1-.075-.41.238-.442.087,0,.036.144.021.193.384.136.168-.368.523-.012l-.077-.41c.422.281.867,1,1.23.822-.022-.316-.248-.286-.338-.526.5.571,1.186.07,1.644.375-.136.269.217.626-.075.85-.076-.41-.212-.141-.37-.185.255.893,1.058-.435,1.138.337l.065-.316c.071.047.249.287.127.386l.5-.2c-.177-.238-.55-.79-.667-.447-.143-.336.206-.224.079-.609.337.526.207-.223.556-.11-.157.459.348.62.333.842.114-.086.368.127.467.283.2.042.666-.329.99-.171a.892.892,0,0,1-.3-.623c.16.165.334.16.363-.18-.564-.619-.18.781-.692.381a.793.793,0,0,0-.53-.595c.12-.221.067-.317.116-.585.323.817.839.078,1.26.482.178.238.044.75.448.839l-.346.25c.38-.227.091.24.405.33l-.125-.265c.192-.053.261-.006.368.186l-.163-.409c.1-.05.294-.1.3.139a.949.949,0,0,0,.036-.249c.02.069.068.112.19.1-.072-.047-.122-.021-.125-.142.463.1.109-.444.4-.4-.046-.095.035-.214.138-.263-.006.644.561.728.712,1.084l0-.009.387.259c-.08-.053.005-.228.118-.3l-.018,0c.122-.1-.148-.7.221-.514l.193.189c-.034-.022,0-.121.017-.17l.2.174c.3-.6.575.338.934.043-.1.052-.262.006-.2-.189.07-.074.176,0,.23.092l-.018-.072.684.4c-.056-.217-.438-.233-.268-.48.1-.294.3.017.42.039-.015.17-.241.321-.013.413.028-.085.245-.26.144-.383a2.72,2.72,0,0,1,.784.581c.068-.075-.039-.145-.074-.168l-.017.049c-.14-.094-.023-.437-.3-.259-.024-.559.4-.156.642-.234l-.388-.38c.652-.765,1.534.062,2.181.073-.191.174-.349.008-.326.445.4.208.35.113.75.2l-.034-.024c.207-.223.491.207.625-.184-.089-.24-.293.226-.3-.26l.505.037c-.16-.286-.505-.037-.7-.1-.139.028.279.066.214.384-.472-.015-.58-.327-.812-.784-.142-.337.205-.344.293-.347.3.5.74.736,1.207.507l.257-.367c.232.333.133.991.552.908l-.125-.264c.091-.1.151-.139.2-.138-.179-.2-.374-.424-.537-.632.238-.561.685.278,1.033.39-.018-.072-.141-.093-.177-.237.521-.135,1.069.533,1.473.622.17-.247-.335-.163-.253-.529.213.142.452-.18.509.158-.093-.482.488-.036.081-.486a4.235,4.235,0,0,1,2.378.5.646.646,0,0,1-.005-.363.862.862,0,0,1-.79-.467c.171-.248.407.33.457.183-.09-.12-.263-.114-.266-.358.222-.273.349.113.506.158l-.085.122c.491.328.271.844.792.709.19-.294,0-.241-.005-.606.123.143.519-.254.647.132l-.316.03c.221.1.429.1.583.227-.016-.078-.028-.159-.075-.19.174.118.4.087.49.33l.049-.39c-.1.173-.416.2-.47-.013.03-.341.346-.129.484-.157-.61-.107-.619-.714-1.137-.459l.088.119c-.322.3-.654-.19-.937-.179a.27.27,0,0,0,.057-.286c-.623.3-1.237.075-1.948.261l-.214-.384-.015.292c-.348.13-.075-.41-.3-.381.085,0,.07.046.088.12-.4-.332-.225.272-.452.18.109.312.438.112.336.526-.4-.331-1.029-.146-1.088-.849-.749.284-1.676-.155-2.306-.216-.085.124.055.1.021.2-.249-.407-.833.285-.839-.078a1.1,1.1,0,0,0-.2.466,1.05,1.05,0,0,0-.555-.309l.149.1-.017.049-.21-.142.008-.022c-.505-.1-1.089-.015-1.547-.4.263.237-.066.437.059.581-.234-.577-.791-.59-1.243-.53,0,.121-.033.218.02.314l-.262-.235.034.144c-.469.108-.982-.536-1.291-.262.192.068.193.19.212.384a2.6,2.6,0,0,1-1.047-.195.233.233,0,0,1,.034.119c-.1.05-.227-.091-.332-.163l-.014.291c-.2-.135-.46.016-.7-.216-.093.319-.579-.3-.855-.161-.106-.071.23.334-.066.318-.042-.631-.384-.016-.408-.695l-.259.249-.059-.34c-.219.636-.335-.284-.661-.081.016.072.05.1.034.145-.106-.071-.349-.114-.159-.287-.176,0-.77-.154-.5.206-.02-.2.224-.03.33.04-.013.291-.276.177-.34.494a1.458,1.458,0,0,0-.068-.13l-.037.18c-.329-.321-.663-.088-.9-.5a.148.148,0,0,1-.183.141l-.006-.365-.348.007.164.531c-.382.106-.651-.495-.966-.585-.08.61-.613-.227-.886.313l.246.163c-.524-.109-.607.258-1.1.049a2.709,2.709,0,0,0,1.02-.58c-.606.256-1.047-.342-1.6.012.039.144.177.238.04.386-.109-.311-.522.014-.441-.352-.173.124-.2.464-.308.515l-.579-.447.017.072c-.983.848-1.839-.566-2.826-.2l.019.195-.247-.286c.195.191-.083.246-.1.415l-.632-.422c-.015.17.023.558.177.482" transform="translate(-322.991 -94.907)" fill="#ffbf00"/>
        <path id="Pfad_4556" data-name="Pfad 4556" d="M330.578,100.934a.144.144,0,0,1-.142.006.285.285,0,0,1,.142-.006" transform="translate(-326.02 -97.356)" fill="#ffbf00"/>
        <path id="Pfad_4557" data-name="Pfad 4557" d="M351.163,101.25a.155.155,0,0,1,.059-.123.2.2,0,0,1-.059.123" transform="translate(-334.453 -97.438)" fill="#ffbf00"/>
      </g>
      <path id="Pfad_4558" data-name="Pfad 4558" d="M352.053,101.624l-.016-.023h-.019Z" transform="translate(-148.997 -44.831)" fill="#ffbf00"/>
      <g id="Gruppe_1830" data-name="Gruppe 1830" transform="translate(211.365 55.102)">
        <path id="Pfad_4559" data-name="Pfad 4559" d="M381.61,100.109c.11.312-.1.05-.192.052.087,0,.12-.22.192-.052" transform="translate(-372.323 -99.3)" fill="#ffbf00"/>
        <path id="Pfad_4560" data-name="Pfad 4560" d="M380.586,99.278a.368.368,0,0,0,.215.182c-.058.009-.118-.023-.215-.182" transform="translate(-371.985 -98.988)" fill="#ffbf00"/>
        <path id="Pfad_4561" data-name="Pfad 4561" d="M381.292,99.482a.476.476,0,0,1-.343.049c.088-.015.162-.135.343-.049" transform="translate(-372.132 -99.059)" fill="#ffbf00"/>
        <path id="Pfad_4562" data-name="Pfad 4562" d="M377.473,99.431a.238.238,0,0,0,.314.09c-.451.181.091.362.13.508-.282-.069-.284-.31-.444-.6" transform="translate(-370.718 -99.05)" fill="#ffbf00"/>
        <path id="Pfad_4563" data-name="Pfad 4563" d="M376.462,99.241a.208.208,0,0,0,.125-.037.106.106,0,0,1-.125.037" transform="translate(-370.307 -98.958)" fill="#ffbf00"/>
        <path id="Pfad_4564" data-name="Pfad 4564" d="M375.986,99.26c-.157-.046-.212-.263-.284-.431.189-.156.31.19.451.243-.11,0-.218-.02-.167.187" transform="translate(-369.998 -98.789)" fill="#ffbf00"/>
        <path id="Pfad_4565" data-name="Pfad 4565" d="M367.946,101.361c.037.024.123.022.124.144l-.261.005c-.1-.071.085-.125.137-.149" transform="translate(-366.774 -99.836)" fill="#ffbf00"/>
        <path id="Pfad_4566" data-name="Pfad 4566" d="M366.291,100.245c-.209-.019-.1.294-.206.223l.011-.412Z" transform="translate(-366.085 -99.305)" fill="#ffbf00"/>
      </g>
      <path id="Pfad_4567" data-name="Pfad 4567" d="M366.61,96.879l.069.015-.061-.042Z" transform="translate(-154.934 -42.9)" fill="#ffbf00"/>
      <g id="Gruppe_1831" data-name="Gruppe 1831" transform="translate(210.548 56.451)">
        <path id="Pfad_4568" data-name="Pfad 4568" d="M364.724,101.066l.146.458c-.177-.116-.179-.482-.146-.458" transform="translate(-364.707 -101.065)" fill="#ffbf00"/>
      </g>
      <path id="Pfad_4569" data-name="Pfad 4569" d="M362.951,101.594l.386.137-.125-.142Z" transform="translate(-153.445 -44.827)" fill="#ffbf00"/>
      <path id="Pfad_4570" data-name="Pfad 4570" d="M361.533,101.3l.035-.1-.3-.017Z" transform="translate(-152.761 -44.663)" fill="#ffbf00"/>
      <g id="Gruppe_1832" data-name="Gruppe 1832" transform="translate(121.765 15.104)">
        <path id="Pfad_4571" data-name="Pfad 4571" d="M344.131,100.369c-.041-.389.379-.228.5-.328-.082.488-.335-.163-.5.328" transform="translate(-267.552 -59.3)" fill="#ffbf00"/>
        <path id="Pfad_4572" data-name="Pfad 4572" d="M331.29,100.637l.4.088c-.31.152-.086,0-.4-.088" transform="translate(-262.329 -59.543)" fill="#ffbf00"/>
        <path id="Pfad_4573" data-name="Pfad 4573" d="M216.408,32.66a.373.373,0,0,0,.011-.084c.049.031.061.056-.011.084" transform="translate(-215.59 -31.853)" fill="#ffbf00"/>
        <path id="Pfad_4574" data-name="Pfad 4574" d="M215.88,31.357a.9.9,0,0,1,.248.723c-.157-.1-.728-.247-.248-.723" transform="translate(-215.299 -31.357)" fill="#ffbf00"/>
        <path id="Pfad_4575" data-name="Pfad 4575" d="M215.031,33.709l.007-.328c.225,0-.033.181-.007.328" transform="translate(-215.029 -32.18)" fill="#ffbf00"/>
      </g>
      <path id="Pfad_4576" data-name="Pfad 4576" d="M215.756,33.037l.09.114.107-.26Z" transform="translate(-93.56 -16.877)" fill="#ffbf00"/>
      <g id="Gruppe_1833" data-name="Gruppe 1833" transform="translate(122.301 16.029)">
        <path id="Pfad_4577" data-name="Pfad 4577" d="M231.579,47.617a1.087,1.087,0,0,1,.269-.26Z" transform="translate(-222.298 -38.792)" fill="#ffbf00"/>
        <path id="Pfad_4578" data-name="Pfad 4578" d="M230.694,49.775a.421.421,0,0,0,.019.139c-.036-.017-.033-.056-.019-.139" transform="translate(-221.934 -39.776)" fill="#ffbf00"/>
        <path id="Pfad_4579" data-name="Pfad 4579" d="M230.925,47.195l.086.061c-.047,0-.079-.022-.086-.061" transform="translate(-222.032 -38.726)" fill="#ffbf00"/>
        <path id="Pfad_4580" data-name="Pfad 4580" d="M223.345,39.176l.2-.492c.256.029-.047.3-.2.492" transform="translate(-218.948 -35.264)" fill="#ffbf00"/>
        <path id="Pfad_4581" data-name="Pfad 4581" d="M228.672,57.153l.167-.106c-.053.079-.111.144-.167.106" transform="translate(-221.115 -42.735)" fill="#ffbf00"/>
        <path id="Pfad_4582" data-name="Pfad 4582" d="M226.56,53.391a1.375,1.375,0,0,1,.209-.155l-.02.055Z" transform="translate(-220.256 -41.184)" fill="#ffbf00"/>
        <path id="Pfad_4583" data-name="Pfad 4583" d="M229.984,46.98l-.02.01.046-.146c.055.012.046.058-.026.136" transform="translate(-221.641 -38.584)" fill="#ffbf00"/>
        <path id="Pfad_4584" data-name="Pfad 4584" d="M228.936,58.613a2.79,2.79,0,0,1-.274.358.69.69,0,0,1,.274-.358" transform="translate(-221.111 -43.372)" fill="#ffbf00"/>
        <path id="Pfad_4585" data-name="Pfad 4585" d="M230.741,50.02l-.005.007,0-.017s0,.009.009.01" transform="translate(-221.954 -39.872)" fill="#ffbf00"/>
        <path id="Pfad_4586" data-name="Pfad 4586" d="M225.98,52.135c0,.058.005.106,0,.171-.068-.017-.052-.091,0-.171" transform="translate(-220.002 -40.736)" fill="#ffbf00"/>
        <path id="Pfad_4587" data-name="Pfad 4587" d="M223.294,39.514l-.068.161c-.02-.034.014-.091.068-.161" transform="translate(-218.898 -35.602)" fill="#ffbf00"/>
        <path id="Pfad_4588" data-name="Pfad 4588" d="M217.549,33.151c.05.062-.047.167-.147.27a.894.894,0,0,1,.147-.27" transform="translate(-216.53 -33.013)" fill="#ffbf00"/>
        <path id="Pfad_4589" data-name="Pfad 4589" d="M247.693,71.759l.015.03c-.017,0-.02-.015-.015-.03" transform="translate(-228.853 -48.72)" fill="#ffbf00"/>
        <path id="Pfad_4590" data-name="Pfad 4590" d="M245.315,66.914a1.448,1.448,0,0,1,.1-.133c.056-.011,0,.058-.1.133" transform="translate(-227.887 -46.694)" fill="#ffbf00"/>
        <path id="Pfad_4591" data-name="Pfad 4591" d="M227.158,52.719l-.061.033-.055.272.063-.033Zm2.638,2.323c.405-.053-.187.386-.16.533-.351.068.179-.339.16-.533m-2.624-4.117c.269.061.367-.439.592-.439l-.1-.068c.412-.1-.244.374-.081.407l-.109-.023c-.314.168-.106.262-.312.454-.173.009-.1-.353.007-.331m2.687,3.8c.3-.077.225,0,.2.135-.125.068-.225,0-.2-.135m-1.8-3.135c.208-.191.34-.021.26.1.275-.244.154-.333.115-.451a.079.079,0,0,0-.008-.092.168.168,0,0,0,.008.092c-.04.09-.2.186-.3.269l-.119.023.018.192Zm-.527-2.194-.3.408.142.125ZM225.465,46.5c-.047-.078-.112-.059.152-.265.081-.124-.1-.069-.018-.193.332-.044-.087.286-.133.458a.218.218,0,0,1,.028.087c-.038-.017-.039-.05-.028-.087m.548.294c.485-.463-.02-.476.072-.646.215.046.566.265-.072.646m3.6,4.895c.117-.022.36-.4.2-.43l.448-.279c-.269.225-.08.409-.089.454-.349.347-.251.134-.558.256m3.182,4.143.027-.136a1.923,1.923,0,0,1,.279-.271.382.382,0,0,1-.305.407m-.142-1.537a.408.408,0,0,0-.183.049l.072-.082c.161-.085.148-.033.112.033a1.075,1.075,0,0,1,.191.009,2.051,2.051,0,0,0,.5-.669c-.027.136-.251.418-.017.373.072-.078.136-.112.089-.168l.154.079c-.274.461-.5.418-.721.384a.9.9,0,0,1-.224.12c-.055.009,0-.066.033-.129m.91.5c.294-.276.717-.612.353-.656a3.3,3.3,0,0,1-.728.553c-.026.134.154.08.208.091.017-.091-.161-.035.044-.226.181-.022.2.1.123.238a1.009,1.009,0,0,0-.221.26.959.959,0,0,0,.221-.26m.614-.266-.1-.069-.369.44Zm-1.386-.964c.251-.135.241-.373.187-.386Zm-.574.631-.026.137.428-.475Zm-1.064-1.46.018-.374c.52-.361.126.216.288.251-.215.237-.116.023-.306.123m-1.487-2.167c.206-.191.781-.256.422.138-.154-.08-.235-.238-.422-.138m-3.856-4.714.125.215-.064-.25Zm-1.333-1.521c1-.632.441-.816.833-1.241-.314.24-.877.51-.638.813-.5-.017.467-.656-.413-.186.152.081.028.433.018.477l-.144-.126c-.5.552.45,0,.343.263m-1.85-3.688-.237.257.227-.283.01.026.053-.059.08.445Zm-.262.11.072-.362-.171.294.242-.658c.342-.018.136.456-.142.726m-.334-.309a.218.218,0,0,1-.027.174.815.815,0,0,1-.3.368c.045-.23.227-.257.3-.368a.284.284,0,0,0,.027-.174m-1.743-1.861a1.316,1.316,0,0,0-.227.2.381.381,0,0,1-.1.167c-.016-.021.031-.091.1-.167.028-.123-.078-.18-.209-.139-.142.157-.043.227-.123.352-.486.176.436-1.089-.6-.085.088-.169.233-.612.475-.7a.652.652,0,0,0,.687.37c.063-.042.121-.065.149-.046a.429.429,0,0,1-.149.046m-1.14-1.507-.189.1-.036-.1Zm-1.457-1.453.078.162-.374.2Zm2.977,5.471c.1.069.342.263.288.253-.26.179-.379-.082-.288-.253m.569,1.4.116.262c.208-.192-.008-.238-.116-.262m-1.014-1.112-.1.208c-.04-.09.022-.157.1-.208l.086-.176c.29.031.066.075-.086.176M221.36,43l.12.026c.257-.066.793-.479.365.08l-.365-.08c-.059.016-.106.014-.12-.026m1.148-1.265a3.183,3.183,0,0,1-.6,1.054c-.333-.026.222-.567.482-.746.117-.308-.163-.036-.269-.059Zm-.871.71c.116-.306.205-.759.466-.938-.467.373-.538.734-.494.793.054.009.047.055.028.145m4.58,6.48.215-.235.053.01.054-.272c.467-.088-.053.557-.088.739-.037-.1.386-.817-.234-.242m-3.794-5.032c.3-.362.1-.5.08-.691-.324.212-.574.631-.431.756-.133.4.511-.315.351-.065m.172.841.055.012.114-.307Zm2.291,3.523c.018-.091.026-.136-.028-.148-.142.159-.312.453-.421.429.152-.2.081-.407.348-.633-.187.384.647-.141.1.353m1.85,2.515a.544.544,0,0,1,.033-.072.279.279,0,0,1-.033.072c-.116.272.4-.088,0,.393-.485.223-.119-.194,0-.393m1.024-3.4.052-.273.063-.034-.053.272Zm-1.073-1.415.315-.168-.162.248Zm-8.653-7.791c.152-.2.108.022.161.034l-.072-.205c-.125.068-.079.124-.089.171m6.034,9.963L224.023,48c-.035,0-.056-.021-.03-.08l.03.08c.091.007.29-.1.043.125M228,53.9c.34-.02.01.521.09.682l.154-.2-.054.273.269-.224c.044.338.539.4.173.841l.412-.384-.16.534.187-.386c.3.206.272.91.317.967l.142-.157c.116-.023.036.1.019.193l.215-.237c.244.477.874.142.964.823.151.082.026-.135.16-.249.244-.087.181.229.1.353.349-.348.089-.453.5-.551-.108.26.3-.362.36-.112l-.431.474c.161.036.4-.292.469-.087-.073.364-.719.221-.566.585.144.127,1.357-.6,1.311-.092.44.047.655-.756.79-.3l.154-.489c.179-.055.4-.291.4-.053-.151.2-.323.5-.286.6.125-.635.763-.165,1.013-.866l.067.129a.215.215,0,0,1,.094-.095l.145.125c.037-.181-.082-.441.35-.632l.25.148c.226-.281.4-.291.6-.482l.042-1.08c-.142.16-.178.34-.366.439-.269-.056.187-.381-.155-.362l-.16.248c.071-.079.081-.124.133-.11.181-.058.037.1-.1.213-.314.168-.251-.148-.1-.352-.189-.183-.52.361-.636.381.375-.484-.271-.343-.155-.649l-.234.328c-.475.134-.287-.253-.251-.432l-.216.236c-.117-.262-1.014.3-.279-.581l-.145.157c-.141-.03-.423-.019-.234-.319-.1.081-.238.17-.3.157.295-.323-.027-.211-.185-.3-.02.161-.47.486-.506.668-.593.153.34-.588.206-.759-.3.075-.172.293-.314.451.034-.464-1.4.263-.666-.617l.359-.112c.106-.259.062-.317-.009-.237.053.012-.02.09-.09.168-.683.042.259-1.029-.156-1.215a3.571,3.571,0,0,1-.295.362c-.278-.013.725-.835.212-.8l-.151.2c-.173.011.055-.272.115-.305-.734.6-.341-.547-1.419.069.313-.451.375-1.052.078-.976-.547.212-.384.531-.832.813-.091-.115.266-.51,0-.569.4-.337,1.078-.334,1.069-.855l-.252.135c.055.01.171-.011.153.081-.17.292-.315.167-.44.235l-.136-.456c.413-.382.467-.087.593-.154-.3-.205-1.176-.02-1.079-.519l-.144.158c.123-.635-.932.459-.432-.378-.215-.046-.422.43-.609.247-.047-.058.141-.158.2-.192-.036-.386-.492.225-.271-.343l-.418.43c.1-.545.687-1.505.31-1.588-.341.3-.2.431-.419.712.392-.858-.507-.865-.392-1.455.369-.157.591-.722.987-.731-.42.428-.052.273-.025.421.87-.992-1.007-.315-.182-1.08l-.386.247c.017-.09.2-.432.368-.441l-.477-.152c-.179.34-.607,1.1-.17.863-.3.407-.351.068-.718.507.422-.713-.35.065-.394-.276.588-.314.52-.806.774-1-.151,0-.038-.367.085-.574-.052-.176-.692-.15-.675-.515a1.823,1.823,0,0,1-.546.779c.106-.26.015-.374-.378-.081-.413.951.957-.6.763.119-.367.441-.4.622-.4.9a3.516,3.516,0,0,0-.71.461c.752-.971-.326-.639-.083-1.3.177-.339.816-.72.717-1.075l.449,0c-.44-.049.223-.283.17-.577l-.234.328c-.154-.083-.135-.173.027-.421l-.375.486c-.109-.024-.261-.106.008-.33a2.387,2.387,0,0,0-.3.205c.068-.077.091-.148.017-.218-.018.09.036.1-.1.214-.12-.4-.547.335-.644.106a.4.4,0,0,1-.362.148c.722-.588.537-1.049.861-1.479l-.01.01.1-.5c-.02.1-.258.207-.39.194l.014.009c-.171.009-.709.743-.684.323l.117-.305c-.008.044-.135.112-.2.147l.1-.3c-.82.347.1-.7-.412-.671.109.021.135.171-.116.306-.116.021-.09-.116-.009-.24l-.072.078.106-.827c-.215.238-.043.51-.4.622-.376.2-.128-.216-.163-.321.2-.146.478-.13.466-.368-.107.058-.412.072-.5.254a3.194,3.194,0,0,1,.26-1.064c-.116.023-.142.16-.151.2l.061-.033c-.034.182-.475.416-.141.44-.613.53-.37-.128-.578-.219l-.231.61c-1.176.265-.686-1.092-.993-1.538.286-.033.182.228.655-.189.037-.464-.044-.342-.142-.693l-.01.044c-.351.066-.01-.52-.514-.253-.224.282.4-.009-.142.441l-.208-.375c-.242.372.208.375.227.569.1.068-.063-.251.323-.5.216.333-.079.694-.474,1.27-.307.405-.484.177-.531.119.413-.664.456-1.176-.027-1.281l-.539.165c.259-.463,1.04-1,.741-1.208l-.234.328c-.16.033-.227.024-.247-.007-.133.3-.289.643-.443.944-.744.358-.026-.717-.074-1.056-.071.079-.034.18-.178.338-.406-.231.07-1.214-.032-1.568-.358.113-.015.377-.463.656.051-.272-.424-.139-.074-.489-.494.508-.281-.3-.584.394-.612-.322-.532-1.3-.606-2.071a1.655,1.655,0,0,1-.4.338.828.828,0,0,1-.132.965c-.361.11.167-.58-.019-.478-.091.169,0,.283-.269.509-.413.1-.047-.34-.074-.489l.18-.055c.125-.633.807-.959.4-1.188-.421.144-.269.224-.673.562.1-.216-.538-.117-.171-.558l.19.184c.006-.244-.1-.383-.033-.6a.682.682,0,0,0-.176.226c.045-.227-.1-.351.125-.635l-.459.326c.244-.089.434.094.218.329-.4.294-.315-.116-.413-.183.182.511-.491,1.075.046,1.19l.092-.17c.488-.053.109.618.262.8a.632.632,0,0,0-.35.227c.648.14.695.765,1.251,1.075l-.323.5.332-.26c.317.116-.421.43-.278.554-.043-.056.018-.09.09-.169-.17.578.413-.1.423.139.295-.361-.091-.4.421-.712-.171.577.343.83-.412,1.517.685.246.651,1.277.894,1.758.179-.057.081-.126.207-.194-.333.542.728.3.324.638a2.189,2.189,0,0,0,.619-.29,1,1,0,0,0-.072.658l.039-.193.063-.033-.055.273-.029.015c.133.436.519.749.31,1.418.133-.4.522-.36.619-.575-.528.688-.268,1.077.021,1.328a1.585,1.585,0,0,0,.343-.3l-.136.4.144-.157c.352.219-.114,1.157.343,1.114-.017-.194.117-.305.324-.5a1.457,1.457,0,0,1,.3.886.578.578,0,0,1,.116-.135c.108.023.009.238-.017.374l.332-.258c-.052.259.243.3.1.671.4-.23-.046.664.241.725-.026.138.259-.462.386-.247-.682.608.172.275-.574.915l.4-.054-.349.351c.818-.436-.152.488.236.523.071-.078.081-.124.144-.157-.028.136.045.34-.241.373.09.115.208.661.475.151-.207.192-.142-.125-.116-.262.331-.259.333.026.718-.223-.031.036-.071.1-.112.165l.22-.141c-.2.516.225.53-.119,1.069.108-.072.213-.1.247,0l-.4.339.18.227.51-.6c.307.16-.231.9-.175,1.19.717-.506.046.624.781.311l.062-.316c.136.455.586.174.6.7a2.135,2.135,0,0,0-1.15-.157c.583.174.135,1.024.8,1.074.142-.158.179-.339.41-.384-.295.361.273.343-.177.623.224,0,.619-.291.727-.266l-.214.8.072-.078c1.43-.115.275,1.761,1.164,2.1l.207-.192-.2.43c.117-.306.314-.168.51-.316l-.16.818c.2-.148.612-.529.45-.565" transform="translate(-215.933 -32.918)" fill="#ffbf00"/>
        <path id="Pfad_4592" data-name="Pfad 4592" d="M244.374,66.617c.067.015.081.049.077.091a.146.146,0,0,1-.077-.091" transform="translate(-227.504 -46.628)" fill="#ffbf00"/>
        <path id="Pfad_4593" data-name="Pfad 4593" d="M234.623,52.409a.285.285,0,0,1-.165.072.4.4,0,0,1,.165-.072" transform="translate(-223.469 -40.848)" fill="#ffbf00"/>
      </g>
      <path id="Pfad_4594" data-name="Pfad 4594" d="M234.6,51.54l.008.013.01-.045Z" transform="translate(-101.227 -24.452)" fill="#ffbf00"/>
      <g id="Gruppe_1834" data-name="Gruppe 1834" transform="translate(123.384 15.824)">
        <path id="Pfad_4595" data-name="Pfad 4595" d="M218.345,32.725c.295-.361.109.024.153.081-.044-.058-.305.121-.153-.081" transform="translate(-217.978 -32.572)" fill="#ffbf00"/>
        <path id="Pfad_4596" data-name="Pfad 4596" d="M217.972,34.2a.47.47,0,0,0,.1-.311c.038.03.032.1-.1.311" transform="translate(-217.845 -33.108)" fill="#ffbf00"/>
        <path id="Pfad_4597" data-name="Pfad 4597" d="M217.759,33.572c.138.03.208.1.224.188-.06-.047-.23.014-.224-.188" transform="translate(-217.759 -32.979)" fill="#ffbf00"/>
        <path id="Pfad_4598" data-name="Pfad 4598" d="M219.636,35.8c.16-.249-.056-.3-.056-.3.424.138.359-.394.5-.553.063.251-.206.475-.447.849" transform="translate(-218.5 -33.539)" fill="#ffbf00"/>
        <path id="Pfad_4599" data-name="Pfad 4599" d="M219.915,37.174a.117.117,0,0,0-.1-.05c.075-.015.1.011.1.05" transform="translate(-218.594 -34.422)" fill="#ffbf00"/>
        <path id="Pfad_4600" data-name="Pfad 4600" d="M220.172,37.111c.026.148-.189.386-.341.589-.267.016.06-.384.049-.529.059.071.087.165.292-.06" transform="translate(-218.559 -34.419)" fill="#ffbf00"/>
        <path id="Pfad_4601" data-name="Pfad 4601" d="M226.455,40.815a.209.209,0,0,1,.1-.215l.136.171c-.028.135-.18.056-.234.044" transform="translate(-221.297 -35.838)" fill="#ffbf00"/>
        <path id="Pfad_4602" data-name="Pfad 4602" d="M226.077,42.9c.082.16.377-.2.351-.065l-.466.371Z" transform="translate(-221.096 -36.736)" fill="#ffbf00"/>
      </g>
      <path id="Pfad_4603" data-name="Pfad 4603" d="M222.134,46.027l.034-.019-.019-.061Z" transform="translate(-96.155 -22.189)" fill="#ffbf00"/>
      <g id="Gruppe_1835" data-name="Gruppe 1835" transform="translate(129.319 21.775)">
        <path id="Pfad_4604" data-name="Pfad 4604" d="M227.765,43.123l.439-.518a1.1,1.1,0,0,1-.439.518" transform="translate(-227.765 -42.605)" fill="#ffbf00"/>
      </g>
      <path id="Pfad_4605" data-name="Pfad 4605" d="M229.007,43.761l.135.171-.036-.384Z" transform="translate(-98.951 -21.214)" fill="#ffbf00"/>
      <path id="Pfad_4606" data-name="Pfad 4606" d="M229.389,45.3l.127.218v-.285Z" transform="translate(-99.107 -21.899)" fill="#ffbf00"/>
      <g id="Gruppe_1836" data-name="Gruppe 1836" transform="translate(134.404 0)">
        <path id="Pfad_4607" data-name="Pfad 4607" d="M236.95,57.737c-.412.382-.44-.047-.613-.039.586-.391-.015.375.613.039" transform="translate(-236.337 -26.924)" fill="#ffbf00"/>
        <path id="Pfad_4608" data-name="Pfad 4608" d="M243.669,66.237l-.1-.352c.323.069.044.058.1.352" transform="translate(-239.28 -30.301)" fill="#ffbf00"/>
        <path id="Pfad_4609" data-name="Pfad 4609" d="M320.977,7.215a.527.527,0,0,0,.084-.039c-.04.072-.068.1-.084.039" transform="translate(-270.772 -6.416)" fill="#ffbf00"/>
        <path id="Pfad_4610" data-name="Pfad 4610" d="M321.88,5.94a2.292,2.292,0,0,1-.763.715c.126-.234.377-.946.763-.715" transform="translate(-270.829 -5.894)" fill="#ffbf00"/>
        <path id="Pfad_4611" data-name="Pfad 4611" d="M320.013,6.359l.326-.2c-.043.249-.174.075-.326.2" transform="translate(-270.38 -6.004)" fill="#ffbf00"/>
      </g>
      <g id="Gruppe_1837" data-name="Gruppe 1837" transform="translate(167.621 7.686)">
        <path id="Pfad_4612" data-name="Pfad 4612" d="M303.208,33.087a.357.357,0,0,1,.211.132Z" transform="translate(-296.76 -24.643)" fill="#ffbf00"/>
        <path id="Pfad_4613" data-name="Pfad 4613" d="M301.291,33.354a.918.918,0,0,0-.142.106c.024-.049.063-.072.142-.106" transform="translate(-295.922 -24.752)" fill="#ffbf00"/>
        <path id="Pfad_4614" data-name="Pfad 4614" d="M303.871,32l-.075.132a.22.22,0,0,1,.075-.132" transform="translate(-296.999 -24.203)" fill="#ffbf00"/>
        <path id="Pfad_4615" data-name="Pfad 4615" d="M312.952,18.94l.454-.088c-.075.3-.291.133-.454.088" transform="translate(-300.724 -18.852)" fill="#ffbf00"/>
        <path id="Pfad_4616" data-name="Pfad 4616" d="M294.309,35.742l.075.117c-.068-.009-.124-.033-.075-.117" transform="translate(-293.132 -25.724)" fill="#ffbf00"/>
        <path id="Pfad_4617" data-name="Pfad 4617" d="M298.421,31.137a.461.461,0,0,1,.117.131l-.051.014Z" transform="translate(-294.812 -23.85)" fill="#ffbf00"/>
        <path id="Pfad_4618" data-name="Pfad 4618" d="M304.208,30.883l-.006-.017.136-.038c-.023.066-.064.084-.13.055" transform="translate(-297.164 -23.724)" fill="#ffbf00"/>
        <path id="Pfad_4619" data-name="Pfad 4619" d="M292.644,37.024a1.092,1.092,0,0,1-.307-.078.262.262,0,0,1,.307.078" transform="translate(-292.337 -26.205)" fill="#ffbf00"/>
      </g>
      <path id="Pfad_4620" data-name="Pfad 4620" d="M301.119,33.546l.005,0,.013-.017Z" transform="translate(-128.289 -17.138)" fill="#ffbf00"/>
      <g id="Gruppe_1838" data-name="Gruppe 1838" transform="translate(157.562 1.039)">
        <path id="Pfad_4621" data-name="Pfad 4621" d="M299.763,29.7l-.17.1a.151.151,0,0,1,.17-.1" transform="translate(-285.23 -16.617)" fill="#ffbf00"/>
        <path id="Pfad_4622" data-name="Pfad 4622" d="M312.849,18.993l-.149.024a.138.138,0,0,1,.149-.024" transform="translate(-290.563 -12.258)" fill="#ffbf00"/>
        <path id="Pfad_4623" data-name="Pfad 4623" d="M320.155,8.856c-.071.093-.158.051-.243.006a.476.476,0,0,1,.243-.006" transform="translate(-293.497 -8.133)" fill="#ffbf00"/>
        <path id="Pfad_4624" data-name="Pfad 4624" d="M276.377,65.449l-.031.034a.048.048,0,0,1,.031-.034" transform="translate(-275.772 -31.163)" fill="#ffbf00"/>
        <path id="Pfad_4625" data-name="Pfad 4625" d="M281.571,59.922a.4.4,0,0,1,.116.024c0,.053-.058.03-.116-.024" transform="translate(-277.898 -28.914)" fill="#ffbf00"/>
        <path id="Pfad_4626" data-name="Pfad 4626" d="M280.585,31.633l-.022-.045-.262.107.022.047Zm-2.793,4.311c-.018.408-.351.033-.5.155,0-.342.306-.015.5-.155m4.58-5.4c-.109.332.372.129.331.374l.085-.149c.026.389-.329-.036-.391.164l.043-.133c-.113-.237-.242.046-.4-.061.021-.182.37-.329.329-.2M278.1,35.816c.025.276-.042.249-.171.3-.046-.094.04-.246.171-.3m3.451-3.9c.155.108-.04.359-.15.349.2.149.3-.038.43-.152a.151.151,0,0,0,.093-.067.373.373,0,0,0-.093.067c-.082.011-.149-.109-.213-.167V31.83l-.2.139Zm2.285-1.928-.352-.079-.151.235Zm3.257-4.037c.088-.1.081-.158.237,0,.109.011.087-.151.2-.139-.014.334-.271.082-.432.136a.449.449,0,0,1-.09.084.146.146,0,0,1,.09-.084m-.391.781c.372.243.479-.315.632-.323-.084.264-.367.782-.632.323m-5.53,6.942c0,.115.327.148.393-.049l.2.315c-.177-.153-.391.165-.436.183-.285-.165-.09-.189-.155-.448M276.463,39.7l.131-.055c.107.012.153.108.219.136-.109.1-.349.147-.351-.081m1.559-1.105a.309.309,0,0,0-.015-.17l.067.029c.057.123.008.139-.052.141a1.732,1.732,0,0,1-.044.216c.151.192.437.091.578.125-.128.055-.37-.017-.368.212.066.029.088.078.151-.006l-.106.215c-.411-.014-.329-.281-.256-.546a.384.384,0,0,1-.078-.171c0-.054.065-.044.122-.045m-.661,1.3c.225.148.482.4.591-.022-.2-.2-.265-.117-.42-.452-.131.055-.107.217-.129.283.087-.039.064-.2.218-.091a.273.273,0,0,1-.26.282.335.335,0,0,0-.219-.081.32.32,0,0,0,.219.081m.156.5.086-.149-.371-.129Zm1.209-2.106c.091.191.33.034.352-.034Zm-.524-.234-.133.055.4.176ZM279.849,36l.37-.212c.267.344-.237.271-.3.469-.2-.088,0-.113-.068-.257m2.43-2.959c.154.1.115.694-.215.546.107-.218.282-.4.215-.546m5.4-7.116-.238.27.261-.222Zm1.756-2.392c.451.7.734-.022,1.087.145-.181-.2-.351-.642-.695-.2.106-.558.569.106.259-.563-.109.216-.437.3-.478.313l.15-.232c-.462-.207-.085.491-.324.533m4.012-4.293-.214-.1.241.073-.028.024.049.023-.456.362Zm-.061-.217.348-.147-.263,0,.612-.142a.46.46,0,0,1-.7.293m.367-.554c-.084.066-.132.082-.169.077a.3.3,0,0,1-.312-.1c.222-.093.215.088.312.1a.365.365,0,0,0,.169-.077m2.172-3.05a.414.414,0,0,0-.162-.123.19.19,0,0,1-.151,0c.024-.031.085-.023.151,0a.31.31,0,0,0,.175-.311c-.131-.059-.217.091-.329.081-.088-.419,1.007-.195.2-.71.151-.007.568-.124.612.085a1.723,1.723,0,0,0-.491.978.127.127,0,0,1,.019.135.28.28,0,0,1-.019-.135m1.709-2.173-.066-.144.109-.1Zm1.709-2.487-.174.186-.133-.285Zm-5.99,6.622a3.627,3.627,0,0,1-.3.472c-.132-.174.15-.464.3-.472m-1.5,1.485-.284.289c.154.109.239-.157.284-.289m1.292-1.793-.19.018c.1-.1.152-.073.19-.018l.16-.014c-.085.336-.089.121-.16.014m-1.815,2.24-.047.147c.02.241.334.571-.146.447l.146-.447a.171.171,0,0,1,.047-.147m1.055.472c-.351.147-.5.04-.943,0,.087-.379.526-.107.657.066.286-.062.065-.2.108-.329Zm-.55-.513c.285-.06.719-.242.852-.071a.513.513,0,0,0-.7-.047c-.021.063-.065.084-.151.118m-7.288,8.993.2.09-.021.065.261-.11c0,.457-.544.286-.718.359.11-.1.744-.082.282-.4m5.7-7.242c.307.1.48-.2.676-.34a.423.423,0,0,0-.679,0c-.371.1.221.364,0,.341m-.871.706-.023.068.285-.063ZM285.449,26.4c.087-.037.13-.056.151-.121-.13-.06-.393-.062-.351-.2.176.039.391-.164.568-.011-.348.033.026.616-.368.327m-2.842,3.568a.324.324,0,0,1,.066-.007.165.165,0,0,1-.066.007c-.251.043.013.387-.391.241-.136-.391.214-.249.391-.241m3.21-.983.262-.111.022.049-.261.109Zm1.6-2.042.112.237-.219-.022ZM296.75,12.7c.176.039-.042.132-.062.195l.216-.2c-.044-.1-.11-.009-.154.009M285.725,25.427l.133-.126a.093.093,0,0,1,.084-.079l-.084.079c-.025.106.042.259-.133.126m-6.465,7.849c-.041.357-.521.332-.7.518l.177.042-.263.109.175.155c-.345.26-.5.836-.87.708l.31.213-.5.154.351-.033a4.559,4.559,0,0,1-1.021.943l.13.057c0,.114-.107.1-.2.141l.2.087c-.52.561-.3,1.04-1,1.561-.109.216.131-.056.22.021.044.21-.26.337-.368.327.283.165.435-.184.458.207-.241.042.307.1.047.322l-.4-.176c-.065.2.219.25,0,.456-.349.147-.091-.647-.481-.255-.152.235.357,1.105-.145,1.374-.126.508.637.247.157.676l.46-.136c.022.163.22.249-.02.408a.7.7,0,0,0-.546.057c.61-.256.027.73.682.571l-.143.152a.071.071,0,0,1,.078.044l-.152.237c.176-.072.457-.364.569-.011l-.193.365c.239.073.22.251.374.359l1.068-.62c-.132-.058-.305.015-.371-.131.106-.327.348-.03.39-.391l-.22-.022c.068.03.11.012.088.079.023.161-.109.1-.2.024-.11-.238.193-.365.37-.326.217-.32-.266-.346-.266-.46.415.11.391-.507.674-.569l-.285-.052c-.049-.437.3-.469.477-.542l-.2-.09c.283-.289-.116-.919.629-.661l-.131-.061c.056-.174.1-.476.361-.452-.062-.062-.126-.157-.1-.228.271.123.217-.158.331-.383-.157.077-.4-.214-.575-.139-.047-.551.526.007.72-.246-.022-.276-.261-.006-.393-.063.457-.249-.011-1.364.736-1.108l.046.323c.241-.044.306-.128.24-.157-.021.065-.087.035-.152.006.081-.718.98-.355,1.24-.919-.132-.059-.218-.024-.309-.1.065-.313.7.275.765-.265l-.175-.042c.021-.18.262-.107.285-.061-.462-.434.607-.711.185-1.5.4.063.984-.24.96-.515-.113-.466-.461-.092-.661-.408.131-.168.46-.021.568-.351.265.231.139.967.661.635l-.09-.191c-.019.065-.019.18-.106.217-.263,0-.112-.24-.158-.333l.48-.43c.307.214,0,.454.049.549.257-.45.231-1.294.711-1.495l-.132-.06c.612-.256-.291-.732.455-.7.084-.263-.352-.2-.135-.512.066-.086.131.059.154.1.392-.278-.135-.4.392-.507l-.354-.192c.525-.22,1.378-.179,1.53-.642-.245-.183-.4.051-.636-.018.787-.1.956-1.085,1.523-1.324.089.3.615.2.552.623-.352-.193-.263.113-.416.232.834.336.5-1.291,1.11-.864l-.176-.268c.087-.038.394-.053.372.129l.238-.613c-.306.014-.986.014-.829.348-.352-.081,0-.342-.377-.47.635.02,0-.343.346-.6.209.447.711.069.858.227.025-.164.371-.268.558-.261.185-.165.273-.847.635-1.053a.749.749,0,0,1-.679-.116c.241-.044.37-.214.149-.462-.876.137.421.678-.256.907a.8.8,0,0,0-.83.12c-.068-.257-.177-.269-.333-.489.833.22.7-.749,1.307-.89.306-.016.573.444.943.117l-.084.492c.128-.51.24.069.546-.171l-.286-.052a.334.334,0,0,1,.415-.231l-.418-.111c.043-.131.152-.347.327-.193a.75.75,0,0,0-.152-.2c.065.026.134.006.216-.118-.087.037-.109.1-.2.027.422-.378-.236-.39.01-.638-.1-.018-.125-.171-.082-.3.457.424.95-.062,1.321.024l-.008,0,.48-.2c-.1.042-.16-.154-.123-.3l-.011.02c.021-.182-.615-.314-.2-.545l.284-.062c-.042.018-.088-.077-.11-.126l.278-.078c-.2-.68.682-.33.743-.862-.042.13-.195.252-.284.061,0-.113.13-.168.24-.158l-.066-.029.806-.4c-.2-.088-.5.266-.547-.056-.135-.287.239-.272.348-.375.109.125.046.438.286.279-.039-.079,0-.4-.165-.383a3.145,3.145,0,0,1,1.014-.372c0-.112-.133-.058-.176-.04l.022.049c-.175.073-.33-.263-.415.117-.418-.339.193-.481.323-.763l-.567.124c-.053-1.118,1.214-1.422,1.714-2.033-.02.294-.259.339.071.6.457-.247.348-.259.716-.584l-.042.017c0-.343.521-.333.345-.716-.242-.072-.062.427-.416.117l.413-.459c-.328-.034-.413.459-.609.6-.087.149.261-.224.439.044-.371.44-.677.339-1.182.268-.35-.085-.089-.421-.024-.506a1.175,1.175,0,0,0,1.283-.822l-.069-.484c.417,0,.814.514,1.074.062l-.285-.052a.421.421,0,0,1,.052-.277c-.28.044-.59.084-.862.1-.222-.591.72-.473,1.066-.734-.065-.03-.174.074-.3.015.3-.584,1.2-.674,1.569-1-.047-.321-.373.216-.572-.1.263-.111.215-.547.5-.383-.418-.224.344-.488-.288-.393a6.207,6.207,0,0,1,2.174-1.94.5.5,0,0,1-.264-.23,1.051,1.051,0,0,1-.938.45c-.046-.323.546-.172.479-.314-.152.006-.282.174-.458.02-.025-.389.346-.26.5-.379l.024.161c.61-.256.812.286,1.113-.3-.067-.371-.174-.154-.438-.387.2-.026.212-.658.587-.532l-.218.323c.241-.145.4-.346.607-.409-.068-.036-.135-.075-.193-.051.217-.091.367-.326.61-.256l-.243-.3c.044.212-.171.53-.367.44-.222-.248.171-.414.257-.564-.545.513-.985.128-1.2.787l.153-.007c-.033.5-.635.5-.841.776a.235.235,0,0,0-.163-.241c-.256.792-.89,1.229-1.3,2.027l-.438-.043.2.2c-.174.415-.354-.193-.5.039.064-.081.087-.036.154-.007-.546.172.023.39-.216.546.307.1.414-.344.634.021-.545.17-.89.887-1.439.488-.367.9-1.39,1.5-1.913,2.058.022.163.11.012.156.106-.482-.024-.432.982-.7.75a1.031,1.031,0,0,0,.179.495,1.317,1.317,0,0,0-.644.329l.185-.077.022.047-.262.109-.01-.023c-.46.415-.841,1.027-1.47,1.213.371-.1.263.346.461.32-.591-.151-1.026.374-1.328.843.089.077.132.173.241.185l-.371.1.131.06c-.282.518-1.134.59-1.172,1.062.195-.138.282-.06.437.046a3.838,3.838,0,0,1-.939.873.191.191,0,0,1,.114.044c-.043.13-.239.157-.37.211l.2.2c-.25.106-.34.451-.689.527.159.3-.653.363-.768.713-.131.054.416,0,.178.269-.485-.368-.3.356-.809-.062l-.02.408-.286-.164c.288.621-.46.136-.565.578.065.031.11.013.132.061-.132.054-.348.259-.329-.033-.131.168-.7.633-.236.612-.154-.108.151-.234.282-.289.2.2-.084.378.092.645a.68.68,0,0,0-.144-.019l.1.152c-.481.106-.569.572-1.048.533a.187.187,0,0,1-.04.266l-.266-.231-.26.338.5.186c-.215.435-.852.3-1.155.545.375.469-.633.437-.452,1.044l.3-.126c-.479.428-.28.746-.8,1.078a3.935,3.935,0,0,0,.363-1.35c-.28.745-1.046.779-1.215,1.536.131.06.3-.014.308.212-.307-.1-.391.508-.591.192-.042.245.18.495.135.627l-.763.263.066.03c-.144,1.486-1.808,1.386-2.3,2.562l.155.108-.394.05c.284-.061.111.238.222.364l-.787.329c.112.124.419.34.483.142" transform="translate(-275.379 -7.646)" fill="#ffbf00"/>
        <path id="Pfad_4627" data-name="Pfad 4627" d="M282.056,58.656a.22.22,0,0,1-.1.139.442.442,0,0,1,.1-.139" transform="translate(-278.053 -28.399)" fill="#ffbf00"/>
        <path id="Pfad_4628" data-name="Pfad 4628" d="M298.007,39.286a.15.15,0,0,1-.043-.136.213.213,0,0,1,.043.136" transform="translate(-284.566 -20.463)" fill="#ffbf00"/>
      </g>
      <path id="Pfad_4629" data-name="Pfad 4629" d="M298.9,38.708l-.016.016.045-.018Z" transform="translate(-127.378 -19.243)" fill="#ffbf00"/>
      <g id="Gruppe_1839" data-name="Gruppe 1839" transform="translate(177.025 12.084)">
        <path id="Pfad_4630" data-name="Pfad 4630" d="M308.2,26.267l.438.158c-.217.092-.482-.142-.438-.158" transform="translate(-308.191 -26.267)" fill="#ffbf00"/>
      </g>
      <path id="Pfad_4631" data-name="Pfad 4631" d="M307.414,27.868l-.195.253.39-.277Z" transform="translate(-130.771 -14.824)" fill="#ffbf00"/>
      <path id="Pfad_4632" data-name="Pfad 4632" d="M305.642,29.461l.284-.176-.045-.094Z" transform="translate(-130.129 -15.372)" fill="#ffbf00"/>
      <g id="Gruppe_1840" data-name="Gruppe 1840" transform="translate(161.715 22.863)">
        <path id="Pfad_4633" data-name="Pfad 4633" d="M292.068,45.13c-.308-.215.126-.51.148-.692.286.4-.372.216-.148.692" transform="translate(-286.277 -44.438)" fill="#ffbf00"/>
        <path id="Pfad_4634" data-name="Pfad 4634" d="M282.38,57.654l.368-.326c-.126.4-.063.084-.368.326" transform="translate(-282.38 -49.682)" fill="#ffbf00"/>
        <path id="Pfad_4635" data-name="Pfad 4635" d="M338.037,58.218a.292.292,0,0,0,.05.024c-.03.028-.047.031-.05-.024" transform="translate(-305.024 -50.044)" fill="#ffbf00"/>
        <path id="Pfad_4636" data-name="Pfad 4636" d="M338.623,58.072a.557.557,0,0,1-.5.03c.1-.088.311-.449.5-.03" transform="translate(-305.058 -49.904)" fill="#ffbf00"/>
        <path id="Pfad_4637" data-name="Pfad 4637" d="M337.584,57.047l.2.068c-.05.154-.106-.058-.2-.068" transform="translate(-304.839 -49.568)" fill="#ffbf00"/>
      </g>
      <path id="Pfad_4638" data-name="Pfad 4638" d="M337.768,57.734l.138.123-.049-.163Z" transform="translate(-143.199 -26.968)" fill="#ffbf00"/>
      <g id="Gruppe_1841" data-name="Gruppe 1841" transform="translate(183.393 32.798)">
        <path id="Pfad_4639" data-name="Pfad 4639" d="M325.382,65.7a.8.8,0,0,1,.1.234Z" transform="translate(-321.553 -63.025)" fill="#ffbf00"/>
        <path id="Pfad_4640" data-name="Pfad 4640" d="M324.281,64.709a.29.29,0,0,0-.091-.015c.018-.02.043-.011.091.015" transform="translate(-321.068 -62.61)" fill="#ffbf00"/>
        <path id="Pfad_4641" data-name="Pfad 4641" d="M325.857,65.369l-.056.049c.012-.031.03-.05.056-.049" transform="translate(-321.724 -62.889)" fill="#ffbf00"/>
        <path id="Pfad_4642" data-name="Pfad 4642" d="M332.311,61.66l.262.23c-.072.168-.175-.088-.262-.23" transform="translate(-324.372 -61.38)" fill="#ffbf00"/>
        <path id="Pfad_4643" data-name="Pfad 4643" d="M320.15,61.92l.029.133c-.037-.05-.064-.1-.029-.133" transform="translate(-319.418 -61.486)" fill="#ffbf00"/>
        <path id="Pfad_4644" data-name="Pfad 4644" d="M322.935,61.188a.927.927,0,0,1,.05.171l-.029-.025Z" transform="translate(-320.558 -61.188)" fill="#ffbf00"/>
        <path id="Pfad_4645" data-name="Pfad 4645" d="M326.17,64.751v-.015l.081.059c-.02.036-.045.02-.08-.044" transform="translate(-321.873 -62.631)" fill="#ffbf00"/>
        <path id="Pfad_4646" data-name="Pfad 4646" d="M319.088,61.787a2,2,0,0,1-.161-.256.447.447,0,0,1,.161.256" transform="translate(-318.927 -61.328)" fill="#ffbf00"/>
      </g>
      <path id="Pfad_4647" data-name="Pfad 4647" d="M324.175,64.705l.008,0-.01,0Z" transform="translate(-137.669 -29.818)" fill="#ffbf00"/>
      <g id="Gruppe_1842" data-name="Gruppe 1842" transform="translate(176.097 30.49)">
        <path id="Pfad_4648" data-name="Pfad 4648" d="M323.826,61.034,323.72,61c.025-.045.068-.019.106.032" transform="translate(-313.582 -58.795)" fill="#ffbf00"/>
        <path id="Pfad_4649" data-name="Pfad 4649" d="M332.253,61.606l-.084-.078c.025-.006.054.028.084.078" transform="translate(-317.019 -59.018)" fill="#ffbf00"/>
        <path id="Pfad_4650" data-name="Pfad 4650" d="M337.406,58.88c-.05.021-.094-.063-.137-.153a.543.543,0,0,1,.137.153" transform="translate(-319.094 -57.879)" fill="#ffbf00"/>
        <path id="Pfad_4651" data-name="Pfad 4651" d="M306.987,72.134l-.021,0c.006-.011.014-.011.021,0" transform="translate(-306.766 -63.332)" fill="#ffbf00"/>
        <path id="Pfad_4652" data-name="Pfad 4652" d="M310.472,71.42c.017.025.038.053.061.091-.005.041-.034-.014-.061-.091" transform="translate(-308.192 -63.043)" fill="#ffbf00"/>
        <path id="Pfad_4653" data-name="Pfad 4653" d="M310.516,61.516l-.006-.047-.16-.09.009.05ZM308.5,62.875c-.055.287-.2-.2-.295-.211.034-.251.171.187.295.211m3.126-1.005c-.1.173.192.333.144.488l.063-.053c-.027.3-.179-.238-.236-.133l.039-.07c-.038-.247-.139-.122-.213-.3.03-.119.24,0,.2.068m-2.943,1.11c-.017.216-.05.154-.128.109-.015-.1.049-.153.128-.109m2.338-.634c.074.177-.061.237-.121.158.092.235.173.168.254.164a.052.052,0,0,0,.059.013.112.112,0,0,0-.059-.013.848.848,0,0,1-.1-.259l.011-.084-.122-.024Zm1.477.059-.188-.285-.108.074Zm2.245-.858c.059-.017.061-.065.131.155.06.08.063-.055.123.024-.044.235-.158-.113-.254-.179a.131.131,0,0,1-.06,0c.018-.022.039-.016.06,0m-.3.319c.18.419.3.079.385.171-.077.139-.288.337-.385-.171m-3.822,1.522c-.011.084.167.321.224.217l.077.359c-.081-.226-.234-.131-.261-.146-.141-.306-.03-.2-.039-.43m-3.262,1.383.078.044a1.313,1.313,0,0,1,.107.24.245.245,0,0,1-.185-.285m.985.2a.325.325,0,0,0,.009-.135l.036.065c.017.128-.012.108-.045.07a.987.987,0,0,1-.047.129,1.318,1.318,0,0,0,.307.465c-.078-.043-.2-.25-.228-.082.034.063.041.114.085.093l-.082.09a.432.432,0,0,1-.082-.566.667.667,0,0,1-.027-.176c.006-.039.043.011.074.047m-.508.527c.109.253.224.606.332.365a2.305,2.305,0,0,1-.186-.6c-.078-.044-.082.09-.1.125.053.029.057-.1.13.074-.026.127-.1.119-.175.038a.7.7,0,0,0-.112-.2.62.62,0,0,0,.112.2m.034.47.063-.053-.193-.336Zm.9-.762c.029.2.179.236.2.2Zm-.267-.513-.079-.044.2.383Zm1.139-.447.228.082c.109.424-.163.046-.22.149-.1-.193.012-.083-.008-.232m1.667-.6c.075.175-.011.582-.177.261.082-.09.2-.115.177-.261M315.07,61.9l-.161.043.17.006Zm1.234-.622c.175.8.41.458.588.808-.079-.26-.125-.7-.365-.591.119-.342.3.443.2-.249-.084.088-.274-.063-.3-.078l.109-.074c-.234-.447-.1.306-.238.184m2.691-.559-.109-.209.128.208h-.019l.026.047-.294-.03Zm-.01-.2.209.118-.146-.172.356.289c-.063.237-.313.006-.419-.235m.263-.168a.131.131,0,0,1-.1-.053.529.529,0,0,1-.162-.278c.133.075.11.2.162.278a.177.177,0,0,0,.1.053m1.535-.836a.9.9,0,0,0-.077-.193.232.232,0,0,1-.081-.1c.015-.007.049.038.081.1.068.043.128-.02.132-.116-.067-.128-.132-.073-.191-.151,0-.365.579.506.183-.4.087.093.33.275.331.457-.144,0-.345.191-.378.4.011.052.015.094,0,.111a.348.348,0,0,1,0-.111m1.183-.491-.021-.148.071-.006Zm1.218-.72-.116.025-.043-.3Zm-4.042.99c-.064.055-.238.184-.22.149-.053-.213.135-.242.22-.149m-.992.12-.189.03c.074.179.151.039.189-.03m.912-.48-.108-.109c.064-.01.092.046.108.109l.09.093c-.084.192-.062.031-.09-.093m-1.251.473-.042.077c-.015.188.123.633-.129.234l.129-.234c0-.044.014-.075.042-.077m.534,1.024c-.209-.117-.282-.294-.521-.611.088-.222.3.26.358.473.164.138.057-.1.094-.173Zm-.248-.73c.164.139.425.285.479.5-.129-.39-.337-.508-.383-.488-.018.034-.045.018-.1-.011M313.079,61.6l.1.192-.018.036.156.087c-.047.336-.332-.142-.438-.2.072,0,.423.419.2-.114m3.949-1.631c.158.27.288.163.412.186-.062-.261-.267-.511-.376-.438-.218-.166.082.41-.036.252m-.56-.043-.02.036.165.138Zm-2.686.893c.053.029.079.044.1.009-.068-.128-.212-.3-.174-.368.093.141.234.131.317.359-.2-.2-.052.468-.241,0m-1.962.783.037.039a.194.194,0,0,1-.037-.039c-.145-.13-.035.292-.244-.075-.034-.374.146-.044.244.075m1.887,1.349.159.089.007.049L313.714,63Zm1.113-.462.036.247-.12-.157Zm6.718-4.424c.094.143-.039.069-.057.1l.143-.01c-.013-.1-.059-.078-.086-.093m-7.5,2.22.088-.006c.009-.023.025-.033.056,0l-.056,0c-.026.061,0,.216-.088.006M309.6,61.866c-.062.236-.326-.093-.443-.069l.094.143-.158-.087.081.225c-.22-.034-.366.292-.56-.043l.149.355-.3-.211.2.2c-.192.163-.623.012-.669.033l.066.127c-.011.084-.071.005-.123-.023l.1.19c-.349.075-.278.57-.722.5-.082.087.079.043.122.156,0,.184-.182.08-.241,0,.14.3.261.147.232.448-.137-.123.162.271-.008.268l-.2-.384c-.057.1.095.325-.049.336-.21-.118.02-.533-.239-.5-.11.074.079,1.042-.229.913-.125.291.326.592.015.6l.27.2c-.006.133.094.326-.055.286-.093-.142-.239-.315-.31-.309.367.205-.064.553.317.857l-.1.021a.143.143,0,0,1,.039.082l-.11.075c.1.059.293.028.317.359l-.145.143a2.431,2.431,0,0,1,.168.5l.66.234c-.068-.128-.173-.186-.193-.334.095-.173.2.2.259-.037l-.119-.157c.034.063.059.078.04.112,0,.134-.071.006-.112-.106-.036-.247.148-.146.241,0,.154-.094-.111-.424-.1-.508.22.349.273-.12.437.018l-.152-.221c.021-.351.219-.148.324-.089l-.1-.192c.187-.031.036-.75.421-.081l-.066-.127c.05-.093.105-.286.25-.1a.433.433,0,0,1-.034-.233c.136.264.136.023.225-.068-.095-.046-.2-.415-.3-.475.033-.434.291.345.425.286.018-.217-.144-.173-.211-.3.281.113.142-1.007.529-.338l-.009.268c.139.123.183.1.15.039-.02.035-.053-.03-.087-.094.124-.474.584.374.789.126a2.418,2.418,0,0,1-.16-.27c.068-.188.359.654.453.3l-.093-.142c.031-.12.157.089.164.138-.21-.616.415-.13.266-.982.212.3.571.456.587.24-.011-.416-.246-.364-.322-.724.09-.04.258.281.354.108.122.339-.028.8.3.892l-.028-.2c-.019.034-.031.118-.084.089-.144-.171-.035-.247-.05-.346l.312-.005c.149.355-.047.337-.031.434.191-.163.268-.8.555-.638l-.066-.128c.367.206-.082-.725.328-.222.077-.139-.174-.371-.019-.464.046-.021.066.126.075.177.246.049-.033-.38.271-.12l-.175-.37c.315.177.784.759.918.517-.115-.292-.225-.218-.35-.424.447.432.647-.18.987.01.017.282.32.543.24.813-.174-.368-.158-.087-.255-.1.426.784.415-.626.709.081l-.069-.31c.053.03.225.217.193.336l.2-.3c-.171-.187-.547-.626-.5-.281-.187-.285.034-.253-.159-.586.352.422.036-.253.257-.219.068.462.388.51.451.721.032-.1.236.043.339.167.12,0,.243-.443.466-.364a1.162,1.162,0,0,1-.365-.521c.138.122.228.082.132-.243-.5-.464.162.768-.239.5-.193-.336-.3-.4-.475-.448a2.583,2.583,0,0,0-.13-.572c.438.7.466-.1.82.19.173.187.27.7.512.695l-.1.3c.125-.291.125.208.322.226l-.153-.221c.083-.088.136-.059.255.1l-.221-.351c.038-.069.123-.157.2.069a1.783,1.783,0,0,0-.063-.241c.033.061.073.091.133.053-.053-.029-.072.007-.112-.107.275-.006-.09-.437.075-.461a.288.288,0,0,1-.015-.275c.209.606.535.566.732.87l0-.009.288.163c-.059-.035-.072-.216-.034-.3l-.009.008c.032-.12-.307-.626-.053-.529l.164.138c-.024-.014-.04-.113-.046-.163l.161.123c-.037-.628.415.2.506-.154-.037.07-.135.06-.164-.138.012-.083.09-.039.15.039l-.033-.063.491.23c-.1-.192-.307-.128-.3-.393-.043-.3.162-.046.234-.05.047.163-.021.351.128.389-.012-.085.043-.294-.05-.387a1.884,1.884,0,0,1,.6.381.15.15,0,0,0-.094-.142l.007.049c-.1-.059-.155-.4-.241-.181-.2-.519.158-.228.26-.352l-.327-.275c.091-.854.827-.26,1.17-.386-.043.2-.181.081-.025.485.279.113.221.034.46.034l-.027-.015c.036-.253.327.091.27-.3-.126-.206-.08.273-.243-.181l.278-.071c-.178-.235-.278.071-.4.046-.064.053.17,0,.24.315-.253.084-.413-.186-.686-.564-.185-.287,0-.365.042-.388.323.41.63.537.8.226l.014-.4c.232.265.4.9.589.738l-.153-.223c.014-.116.036-.161.059-.168l-.49-.48c-.06-.578.451.117.672.151-.034-.064-.1-.059-.171-.187.231-.233.739.278.98.278.008-.267-.23-.082-.307-.443.157.088.178-.262.32.043-.209-.433.244-.135-.118-.474.335-.355.921-.116,1.418-.018a1.058,1.058,0,0,1-.121-.34c-.137.059-.384.009-.57-.275.008-.268.323.224.3.078-.087-.095-.175-.055-.258-.281.028-.3.221.032.319.043l0,.132c.366.208.42.734.65.5,0-.315-.079-.226-.2-.567.113.109.189-.346.384-.011l-.156.095c.15.05.258.006.381.091a.435.435,0,0,0-.1-.161c.13.072.238,0,.365.206l-.1-.377c0,.183-.153.278-.251.086-.1-.325.139-.194.2-.247-.357.026-.56-.541-.749-.2l.087.094c-.072.343-.408-.043-.553.027a.443.443,0,0,0-.062-.281c-.23.415-.628.326-.94.648l-.24-.316.089.277c-.141.192-.175-.368-.284-.3.044-.017.053.03.087.095-.323-.227-.03.3-.18.263.16.27.266.013.35.423-.321-.226-.591.077-.852-.571-.3.421-.933.2-1.284.275-.005.133.06.079.075.179-.266-.33-.346.44-.467.1a1.6,1.6,0,0,0,.046.477.585.585,0,0,0-.393-.174l.112.063.007.048-.157-.088,0-.022c-.3.008-.577.212-.947-.059.217.167.11.424.222.534-.312-.494-.61-.389-.829-.24a1.061,1.061,0,0,0,.114.291l-.215-.169.065.129c-.212.2-.693-.3-.766.022.124.026.164.138.238.316a.909.909,0,0,1-.615.034.4.4,0,0,1,.057.106c-.037.069-.149-.04-.228-.084l.089.275c-.149-.082-.238.112-.44-.057.056.319-.4-.157-.5.026-.08-.044.23.266.069.313-.23-.582-.207.065-.444-.568l-.054.286-.141-.3c.093.641-.27-.2-.376.061.033.065.06.08.066.129-.078-.044-.221-.035-.179-.237-.091.04-.455.017-.2.3-.075-.179.108-.074.186-.031.089.276-.086.224-.017.534a1.129,1.129,0,0,0-.079-.108l.04.177c-.278-.232-.377.052-.64-.285.024.087.016.164-.05.168l-.123-.34-.18.079.26.463c-.167.179-.506-.33-.7-.347.158.586-.4-.087-.364.474l.184.1c-.311.006-.236.366-.562.273a1.674,1.674,0,0,0,.348-.757c-.235.367-.665-.1-.84.345.068.126.171.186.148.353-.16-.27-.271.121-.348-.239-.05.152.046.478.007.546l-.452-.3.033.063c-.238,1-1.152-.149-1.555.394l.074.178-.224-.215c.164.137.037.245.083.407l-.47-.264c.049.162.2.518.252.415" transform="translate(-306.628 -57.297)" fill="#ffbf00"/>
        <path id="Pfad_4654" data-name="Pfad 4654" d="M310.867,70.852c-.024.042-.047.046-.073.036a.094.094,0,0,1,.073-.036" transform="translate(-308.323 -62.812)" fill="#ffbf00"/>
        <path id="Pfad_4655" data-name="Pfad 4655" d="M321.822,66.894a.21.21,0,0,1-.009-.126.313.313,0,0,1,.009.126" transform="translate(-312.803 -61.15)" fill="#ffbf00"/>
      </g>
      <path id="Pfad_4656" data-name="Pfad 4656" d="M322.369,67.051l.026.015-.016-.017Z" transform="translate(-136.935 -30.774)" fill="#ffbf00"/>
      <g id="Gruppe_1843" data-name="Gruppe 1843" transform="translate(189.533 31.478)">
        <path id="Pfad_4657" data-name="Pfad 4657" d="M337.482,59.509c.16.27-.037.069-.084.088.047-.019-.008-.232.084-.088" transform="translate(-332.582 -59.165)" fill="#ffbf00"/>
        <path id="Pfad_4658" data-name="Pfad 4658" d="M336.644,58.963a.285.285,0,0,0,.174.126c-.026.02-.071,0-.174-.126" transform="translate(-332.275 -58.963)" fill="#ffbf00"/>
        <path id="Pfad_4659" data-name="Pfad 4659" d="M337.1,58.971c-.05.089-.107.124-.165.117.042-.032.042-.158.165-.117" transform="translate(-332.394 -58.963)" fill="#ffbf00"/>
        <path id="Pfad_4660" data-name="Pfad 4660" d="M335.055,59.75c.12.157.2.018.2.018-.18.264.167.321.233.448-.17,0-.25-.231-.429-.467" transform="translate(-331.628 -59.283)" fill="#ffbf00"/>
        <path id="Pfad_4661" data-name="Pfad 4661" d="M334.472,59.764a.09.09,0,0,0,.053-.061c-.008.055-.027.066-.053.061" transform="translate(-331.391 -59.264)" fill="#ffbf00"/>
        <path id="Pfad_4662" data-name="Pfad 4662" d="M334.227,59.882c-.1-.009-.2-.2-.291-.344.049-.186.225.113.318.133-.058.028-.121.028-.027.211" transform="translate(-331.173 -59.172)" fill="#ffbf00"/>
        <path id="Pfad_4663" data-name="Pfad 4663" d="M330.7,63.508c.027.015.071,0,.113.108l-.137.06c-.079-.045,0-.134.024-.168" transform="translate(-329.832 -60.812)" fill="#ffbf00"/>
        <path id="Pfad_4664" data-name="Pfad 4664" d="M329.442,62.827c-.117.025.044.3-.036.251l-.129-.388Z" transform="translate(-329.278 -60.479)" fill="#ffbf00"/>
      </g>
      <path id="Pfad_4665" data-name="Pfad 4665" d="M328.5,59.607h.042l-.045-.025Z" transform="translate(-139.429 -27.736)" fill="#ffbf00"/>
      <g id="Gruppe_1844" data-name="Gruppe 1844" transform="translate(189.299 34.419)">
        <path id="Pfad_4666" data-name="Pfad 4666" d="M328.887,63.922l.226.4a.747.747,0,0,1-.226-.4" transform="translate(-328.883 -63.921)" fill="#ffbf00"/>
      </g>
      <path id="Pfad_4667" data-name="Pfad 4667" d="M328.125,64.749l.246.049-.112-.108Z" transform="translate(-139.276 -29.815)" fill="#ffbf00"/>
      <path id="Pfad_4668" data-name="Pfad 4668" d="M327.1,64.72l.177.054-.013-.1Z" transform="translate(-138.86 -29.809)" fill="#ffbf00"/>
      <g id="Gruppe_1845" data-name="Gruppe 1845" transform="translate(2.812 36.276)">
        <path id="Pfad_4669" data-name="Pfad 4669" d="M317.857,67.46c-.149-.354.125-.291.157-.409.116.475-.229-.084-.157.409" transform="translate(-137.893 -67.051)" fill="#ffbf00"/>
        <path id="Pfad_4670" data-name="Pfad 4670" d="M311.142,70.442l.238,0c-.113.209-.044.021-.238,0" transform="translate(-135.179 -68.43)" fill="#ffbf00"/>
        <path id="Pfad_4671" data-name="Pfad 4671" d="M312.974,150.716a9.967,9.967,0,0,1,3.438.44,4.362,4.362,0,0,1,1.867,1.417,8.993,8.993,0,0,1,1.329,3.064h.769l-.285-6.545H297.928v.812h1.055a4.087,4.087,0,0,1,2.021.527,1.985,1.985,0,0,1,.9.944,9.892,9.892,0,0,1,.285,2.988v19.242q0,2.68-.527,3.383a3.181,3.181,0,0,1-2.68,1.076h-1.055v.813h12.784v-.813h-1.077a4.172,4.172,0,0,1-2.021-.526,1.968,1.968,0,0,1-.922-.946,9.852,9.852,0,0,1-.286-2.987v-9.358h5.426a4.908,4.908,0,0,1,2.252.406,2.851,2.851,0,0,1,1.186,1.22,5.891,5.891,0,0,1,.45,2.548h.813V158.339h-.813a5.447,5.447,0,0,1-1.153,3.262,3.866,3.866,0,0,1-2.735.824h-5.426V150.716ZM286.529,153q3.009,3.756,3.009,11.4,0,7.051-2.734,10.325a8.646,8.646,0,0,1-6.93,3.272,7.706,7.706,0,0,1-6.326-2.987q-3.119-3.932-3.119-11.224,0-7.117,3.01-10.807a7.858,7.858,0,0,1,6.414-2.966A8.118,8.118,0,0,1,286.529,153m-16.3-.7a15.069,15.069,0,0,0-4.832,11.576,15.681,15.681,0,0,0,4.184,11.312,14.318,14.318,0,0,0,20.7-.11,15.658,15.658,0,0,0,4.284-11.268,15.2,15.2,0,0,0-4.251-10.994,13.509,13.509,0,0,0-10.049-4.4A14.255,14.255,0,0,0,270.23,152.3m-30.554,2.087a10.18,10.18,0,0,1,.263-2.911,1.9,1.9,0,0,1,.944-1.065,4.178,4.178,0,0,1,2-.505h1.077v-.812H231.2v.812h1.055a4.168,4.168,0,0,1,2.021.527,1.982,1.982,0,0,1,.9.944,9.98,9.98,0,0,1,.285,3.01v19.22q0,2.68-.527,3.383a3.18,3.18,0,0,1-2.68,1.076H231.2v.813h12.762v-.813h-1.077a4.05,4.05,0,0,1-2-.526,1.97,1.97,0,0,1-.922-.946,9.857,9.857,0,0,1-.285-2.987v-9.072h13.838v9.072q0,2.68-.549,3.383a3.153,3.153,0,0,1-2.658,1.076h-1.054v.813h12.74v-.813h-1.054a4.172,4.172,0,0,1-2.021-.526,1.978,1.978,0,0,1-.9-.946,9.831,9.831,0,0,1-.286-2.987v-19.22a10.593,10.593,0,0,1,.253-2.911,1.845,1.845,0,0,1,.956-1.065,4.176,4.176,0,0,1,2-.505h1.054v-.812h-12.74v.812h1.054a4.045,4.045,0,0,1,2,.527,1.972,1.972,0,0,1,.923.944,10,10,0,0,1,.285,3.01v8.523H239.676Zm-30.905-3.207a19.391,19.391,0,0,1,3.449-.418,6.252,6.252,0,0,1,4.624,1.746,6.138,6.138,0,0,1,1.746,4.536,5.909,5.909,0,0,1-2.163,4.7q-2.164,1.844-6.425,1.844-.2,0-.505-.011t-.725-.011Zm21.153,26.886a9.13,9.13,0,0,1-3.954-1.23,15.278,15.278,0,0,1-3.624-3.91l-6.15-8.545a10.108,10.108,0,0,0,5.546-2.855,6.956,6.956,0,0,0,1.79-4.767,6.629,6.629,0,0,0-1.57-4.426,8,8,0,0,0-3.822-2.548,25.772,25.772,0,0,0-7-.692H200.292v.812h1.12a3.229,3.229,0,0,1,2.548.967q.614.68.615,3.492v19.242a6.937,6.937,0,0,1-.461,3.229,3,3,0,0,1-2.7,1.23h-1.12v.813h12.762v-.813H211.89a3.127,3.127,0,0,1-2.5-.966q-.616-.681-.615-3.493V164.95c.234.015.461.026.681.034s.425.01.615.01q.7,0,1.823-.044l10.083,13.927h7.952ZM175.867,167.28l5.184-12.038L186.1,167.28Zm12.652,5.908a9.112,9.112,0,0,1,.878,3.053,1.529,1.529,0,0,1-.626,1.23,4.39,4.39,0,0,1-2.405.593v.813h11.752v-.813a4.635,4.635,0,0,1-2.845-1A11.3,11.3,0,0,1,193,173.188L182.632,148.41h-.769l-10.478,24.514a13.447,13.447,0,0,1-2.483,4.283,5.046,5.046,0,0,1-2.416.857v.813h9.38v-.813a5.655,5.655,0,0,1-2.8-.67,1.5,1.5,0,0,1-.648-1.2,7.446,7.446,0,0,1,.747-2.592l2.021-4.7h11.532Zm-27.259,1.5a6.262,6.262,0,0,1-2.526,1.79,15.736,15.736,0,0,1-4.811.505h-2.175a14.258,14.258,0,0,1-3.427-.219,1.568,1.568,0,0,1-.813-.681,6.087,6.087,0,0,1-.351-2.5V154.868a9.586,9.586,0,0,1,.351-3.36,2.69,2.69,0,0,1,1.307-1.164,8.232,8.232,0,0,1,3.328-.44v-.812H138.657v.812h1.12a3.226,3.226,0,0,1,2.548.967q.615.7.615,3.492v19.221a7.1,7.1,0,0,1-.461,3.251,3,3,0,0,1-2.7,1.23h-1.12v.813h23.064l2.548-8.083-.725-.154a14.674,14.674,0,0,1-2.285,4.052m-38.9-16.859q3.975-4.063,4.459-4.5a19.014,19.014,0,0,1,2.812-2.23,9.079,9.079,0,0,1,1.933-.933,6.53,6.53,0,0,1,1.758-.264v-.812H122.381v.812h.681a2.464,2.464,0,0,1,1.559.384,1.136,1.136,0,0,1,.461.89,2.878,2.878,0,0,1-.593,1.537q-1.362,2-7.886,7.974-2.57,2.372-3.009,2.79v-9.116a10.051,10.051,0,0,1,.263-2.9,1.909,1.909,0,0,1,.945-1.055,4.261,4.261,0,0,1,2-.505h1.01v-.812h-12.7v.812h1.055a4.168,4.168,0,0,1,2.021.527,2.008,2.008,0,0,1,.9.922,10.106,10.106,0,0,1,.286,3.01v19.242q0,2.68-.527,3.383a3.18,3.18,0,0,1-2.68,1.076h-1.055v.813h12.7v-.813H116.8a4.048,4.048,0,0,1-2-.526,1.969,1.969,0,0,1-.923-.946,9.858,9.858,0,0,1-.285-2.987v-9.6l10.28,10.171a8.353,8.353,0,0,1,1.373,1.559,2.079,2.079,0,0,1,.209.944,1.211,1.211,0,0,1-.56.956,3.064,3.064,0,0,1-1.834.428v.813H137.23v-.813a9.84,9.84,0,0,1-3.822-1.109,20.041,20.041,0,0,1-4.613-3.679l-10.983-10.917ZM70.389,149.9a7.01,7.01,0,0,1,1.933.2,7.24,7.24,0,0,1,1.966.9,13.564,13.564,0,0,1,1.966,2v20.714a6.664,6.664,0,0,1-.483,3.207,3.051,3.051,0,0,1-2.7,1.142H72.036v.813H82.4v-.813H81.35a3.3,3.3,0,0,1-2.57-.922q-.593-.682-.593-3.427V155.373L97.824,179.36h.791V154.253a6.667,6.667,0,0,1,.483-3.207,3.025,3.025,0,0,1,2.68-1.142h1.055v-.812H92.464v.812H93.5a3.257,3.257,0,0,1,2.57.923q.615.681.615,3.427V171.43l-18.21-22.339H70.389ZM60.307,153q3.009,3.756,3.009,11.4,0,7.051-2.734,10.325A8.646,8.646,0,0,1,53.651,178a7.7,7.7,0,0,1-6.326-2.987q-3.119-3.932-3.119-11.224,0-7.117,3.01-10.807a7.858,7.858,0,0,1,6.414-2.966A8.118,8.118,0,0,1,60.307,153m-16.3-.7a15.069,15.069,0,0,0-4.832,11.576,15.681,15.681,0,0,0,4.184,11.312,14.318,14.318,0,0,0,20.7-.11,15.659,15.659,0,0,0,4.284-11.268A15.205,15.205,0,0,0,64.1,152.814a13.509,13.509,0,0,0-10.049-4.4A14.255,14.255,0,0,0,44.009,152.3m-12.52-3.888a2.726,2.726,0,0,1-.582,1.374,1.312,1.312,0,0,1-.934.34,5.181,5.181,0,0,1-1.736-.549,12.564,12.564,0,0,0-5.03-1.164,8.762,8.762,0,0,0-6.26,2.317,7.331,7.331,0,0,0-2.46,5.524,6.974,6.974,0,0,0,.835,3.383,9.2,9.2,0,0,0,2.449,2.812,45.4,45.4,0,0,0,5.437,3.415,53.7,53.7,0,0,1,4.679,2.8,6.622,6.622,0,0,1,1.878,2.086,4.646,4.646,0,0,1,.6,2.219,4.491,4.491,0,0,1-1.592,3.426,6.2,6.2,0,0,1-4.338,1.45,9.159,9.159,0,0,1-4.36-1.054,7.382,7.382,0,0,1-2.955-2.647,14.4,14.4,0,0,1-1.537-4.8h-.813v10.214h.813a2.617,2.617,0,0,1,.472-1.362,1.148,1.148,0,0,1,.868-.33,12.658,12.658,0,0,1,2.713.692,24.732,24.732,0,0,0,2.823.8,14.238,14.238,0,0,0,2.438.2,9.506,9.506,0,0,0,6.755-2.449,7.709,7.709,0,0,0,2.625-5.832,7.431,7.431,0,0,0-.824-3.4,8.387,8.387,0,0,0-2.35-2.823,44.908,44.908,0,0,0-5.7-3.438q-5.119-2.745-6.48-4.393a3.759,3.759,0,0,1-.945-2.482,4.242,4.242,0,0,1,1.494-3.173,5.318,5.318,0,0,1,3.778-1.4,8.056,8.056,0,0,1,3.91,1.032,7.373,7.373,0,0,1,2.91,2.79,12.832,12.832,0,0,1,1.417,4.723H32.3v-10.3Z" transform="translate(-14.487 -100.151)" fill="#6f6e19"/>
        <path id="Pfad_4672" data-name="Pfad 4672" d="M282.118,234.633h1.164v-2.742H285c1.072,0,1.325.541,1.325,1.763a1.859,1.859,0,0,0,.177.979h1.249a3.025,3.025,0,0,1-.364-1.753c0-1.053-.587-1.351-.988-1.408v-.018a1.615,1.615,0,0,0,1.1-1.678c0-1.129-.745-1.8-2.2-1.8h-3.179Zm1.164-5.707h1.893c.607,0,1.157.168,1.157,1.017,0,.7-.4,1.064-1.138,1.064h-1.912Zm-7.971,3.312a2.737,2.737,0,0,0,5.462,0v-4.261h-1.164v3.879c0,.9-.056,1.93-1.567,1.93s-1.568-1.035-1.568-1.93v-3.879h-1.164Zm-6.089-3.255h2.107v5.65h1.165v-5.65h2.116v-1.006h-5.388Zm-5.5,5.65h1.2l.625-1.762h2.657l.625,1.762h1.249l-2.563-6.656h-1.24Zm3.151-5.511h.028l1,2.864h-2.032Zm-9.156,5.511h1.109v-4.895h.027l3.032,4.895h1.23v-6.656h-1.108v4.9h-.019l-3.041-4.9h-1.23Zm-9.11,0h1.164v-2.742h1.717c1.072,0,1.325.541,1.325,1.763a1.859,1.859,0,0,0,.177.979h1.249a3.029,3.029,0,0,1-.364-1.753c0-1.053-.587-1.351-.988-1.408v-.018a1.615,1.615,0,0,0,1.1-1.678c0-1.129-.746-1.8-2.2-1.8h-3.179Zm1.164-5.707h1.893c.607,0,1.158.168,1.158,1.017,0,.7-.4,1.064-1.139,1.064h-1.912Zm-7.038,5.707h4.856v-1.006H243.9v-1.949h3.357v-.951H243.9v-1.744h3.627v-1.006h-4.792Zm-6.732,0h2.759c2.052,0,2.937-1.491,2.937-3.328s-.885-3.328-2.937-3.328H236Zm1.164-5.707h1.147c1.829,0,2.22,1.045,2.22,2.379s-.391,2.379-2.22,2.379h-1.147Zm-10.535,5.707h1.108v-4.895h.028l3.032,4.895h1.23v-6.656h-1.109v4.9H230.9l-3.04-4.9h-1.23Zm-2.546,0h1.164v-6.656h-1.164Zm-9.371,0h1.109v-4.895h.028l3.032,4.895h1.23v-6.656H219v4.9h-.018l-3.041-4.9h-1.23Zm-5.828,0h4.857v-1.006h-3.692v-1.949h3.357v-.951h-3.357v-1.744h3.627v-1.006h-4.792Zm-6.164-5.65h2.107v5.65h1.164v-5.65h2.117v-1.006h-5.389Zm-5.529,0H199.3v5.65h1.164v-5.65h2.117v-1.006h-5.388Zm-1.959,5.65H196.4v-6.656h-1.164Zm-8.308,0h1.109v-5.138h.018l1.846,5.138h.961l1.846-5.138h.019v5.138h1.109v-6.656h-1.622l-1.791,5.211H190.4l-1.838-5.211h-1.64Z" transform="translate(-84.642 -132.522)" fill="#6f6e19"/>
      </g>
      <path id="Pfad_4673" data-name="Pfad 4673" d="M9.747,233.237h98.339v-.593H9.747Zm212.675,0h97.872v-.593H222.422Z" transform="translate(-9.747 -98.145)" fill="#75712e"/>
    </g>
  </g>
</svg>
